<svg preserveAspectRatio="none" viewBox="0 0 1440 1200" fill="none" xmlns="http://www.w3.org/2000/svg">
<g clip-path="url(#clip0_2795_12)">
<path opacity="0.2" d="M1837.73 629.469C2180.29 738.968 2158.59 663.426 2136.38 652.781C2119.76 644.818 2203.55 561.359 2124.42 629.798C1967.29 765.701 1946.04 465.381 1757.53 484.379C1598.09 500.441 1643.42 667.566 1546.57 691.16C1496.7 703.31 1368.98 706.597 1320.52 622.742C1290.78 571.299 1277.11 509.002 1176.76 472.908C1101.61 445.879 1014.47 519.264 950.172 472.182C758.388 331.743 619.896 470.422 630.727 359.672C642.472 239.589 738.417 214.14 729.829 129.882C716.647 0.624985 495.223 0 300.491 160.721C253.344 199.631 101.462 252.203 -24.7619 146.225C-104.02 79.6748 -192.673 9.86527 -211.18 0C-223.583 40.2608 -243.419 79.5135 -274 107.322C-250.833 129.552 -118.908 186.506 -56.108 237.963C175.946 428.098 237.255 292.645 279.533 243.272C428.669 69.1107 543.417 197.91 529.054 386.533C520.774 495.239 593.814 536.817 696.455 527.664C755.722 522.382 817.421 482.74 873.646 492.04C938.393 502.752 1035.18 523.363 1060.28 584.504C1118.71 726.878 1223.18 741.32 1293.98 731.428C1318.35 728.021 1341.68 720.299 1366.19 718.935C1506.69 711.16 1556.14 861.235 1643.86 866.712C1817.71 877.572 1673.62 576.997 1837.74 629.455L1837.73 629.469Z" fill="#00158A"/>
<path opacity="0.1" d="M1418.3 805.911C1337.08 742.534 1246.48 767.42 1253.54 860.843C1257.34 911.051 1268.92 959.801 1264.01 989.075C1243.89 1109.06 1071.7 1025.09 987.636 939.961C939.307 891.016 872.45 827.552 834.688 724.434C809.449 655.494 802.771 563.899 845.054 540.928C907.961 506.757 976.545 555.662 1031.32 562.77C1181.99 582.362 1228.62 493.508 1171.36 409.317C1127.88 345.402 1246.73 364.309 1342.28 386.668C1444 410.466 1510.33 373.217 1512.17 316.19C1515.92 199.097 1302.45 208.947 1295.45 149.379C1290.77 109.464 1371.91 101.489 1432 138.381C1559.8 216.841 1638.12 384.774 1840.69 303.122C1860.7 295.053 1845.45 69.7972 1832.13 89.1737C1718.52 254.566 1467.87 -4.91408 1288.86 55.2446C1261.29 64.5096 1219.06 82.2334 1211.34 119.495C1201.51 166.996 1272.5 199.272 1316.9 243.125C1354.08 279.822 1333.21 312.649 1249.49 321.336C1208.76 325.562 1177.92 324.145 1134.69 316.553C1098.77 310.277 1052.07 288.267 1020.82 316.109C988.765 344.71 1022.44 382.731 1033.37 402.806C1054.47 441.593 1070.68 482.893 1045.46 502.712C993.46 543.602 942.182 471.061 850.543 453.357C790.108 441.68 729.445 462.266 675.217 441.512C623.173 421.598 575.731 379.184 515.202 379.184C460.538 379.184 411.396 405.91 379.533 456.482C352.601 499.226 338.607 555.487 345.258 604.513C353.843 667.789 363.43 707.087 295.048 736.77C250.346 756.173 188.629 697.815 155.932 747.432C139.735 772.022 140.4 802.908 119.138 823.366C103.391 838.517 81.6316 854.809 61.874 863.745C19.0202 883.128 -25.0967 867.897 -69.536 869.308L-98 993.159C-84.5842 1003.96 -64.8737 939.471 -50.1413 936.414C-4.41881 926.934 65.5421 1069.36 216.777 993.704C249.876 977.149 261.969 949.529 271.911 914.719C331.714 705.447 524.419 868.253 587.904 746.317C639.007 648.157 477.481 602.048 507.114 508.087C537.264 412.501 711.42 436.494 749.014 539.974C775.234 612.152 771.452 693.414 769.376 769.227C758.627 1162.3 968.57 1222.31 1048.1 1253.29C1221.95 1321.01 1538.78 1403.98 1538.78 1403.98C1548.89 1401.05 1591.5 1325 1591.5 1325C1454.59 1201.61 1236.68 1074.8 1378.69 959.714C1463.51 890.969 1524.17 936.071 1580.36 958.323C1723.95 1015.19 1800.79 832.073 1884 936.394C1872.04 924.334 1879.49 800.946 1879.49 800.946C1794.56 798.03 1797.71 878.748 1724.31 876.544C1712.4 876.188 1699.01 871.438 1688.64 865.888C1663.09 852.216 1632.34 844.785 1603.26 846.129C1596.2 846.458 1505.15 873.689 1418.29 805.904L1418.3 805.911ZM1134.15 1206.41C1109.33 1202.48 930.641 1161.43 888.459 1030.09C880.592 1005.58 896.124 987.24 928.74 989.337C949.646 990.68 1089.33 1035.45 1159.12 1110.12C1182.47 1135.11 1204.48 1217.56 1134.15 1206.4V1206.41Z" fill="#00158A"/>
<path opacity="0.2" d="M-87 936.813C-55.2887 906.029 -8.04168 862.282 35.159 850.362C118.885 827.248 174.316 882.357 190.617 895.518C241.987 936.972 295.152 946.829 337.015 919.637C392.427 883.651 400.741 797.546 501.264 750.726C606.545 701.685 683.896 758.492 709.564 777.269C774.56 824.8 805.959 722.577 871.494 725.044C963.779 728.521 978.324 857.719 1064.64 832.21C1134.63 811.524 1177.06 818.136 1222.98 856.209C1273.48 898.081 1338.58 942.338 1356.11 893.316C1372.97 846.145 1415.01 812.712 1459.56 807.495C1463.7 821.141 1460.14 838.86 1461.36 853.593C1462.91 872.317 1485.97 920.955 1488 939.54C1467.41 919.334 1409.37 939.496 1394.77 958.067C1340.33 1027.3 1311.91 958.889 1261.12 945.411C1177.98 923.349 1143.81 1020.31 1058.34 930.514C1018.27 888.421 1000.74 842.423 890.089 818.424C834.639 806.393 819.233 853.646 729.137 824.218C721.968 821.877 618.352 798.282 529.958 850.54C456.735 893.826 465.112 985.595 394.246 1022.91C352.388 1044.96 317.708 1038.58 287.411 1021.26C243.907 996.38 199.624 958.567 153.56 944.165C93.2844 925.321 48.8231 937.409 -2.60971 972.333C-28.8939 990.177 -51.9015 1018.1 -80.038 1031.12C-83.9304 1005.08 -81.111 956.523 -86.9952 936.823L-87 936.813Z" fill="#00158A"/>
</g>
<defs>
<clipPath id="clip0_2795_12">
<rect width="1440" height="1200" fill="white"/>
</clipPath>
</defs>
</svg>
