<svg preserveAspectRatio="none" viewBox="0 0 1440 2103" fill="none" xmlns="http://www.w3.org/2000/svg">
<g clip-path="url(#clip0_2784_36)">
<path d="M1901.73 673.469C2244.29 782.968 2222.59 707.426 2200.38 696.781C2183.76 688.818 2267.55 605.359 2188.42 673.798C2031.29 809.701 2010.04 509.381 1821.53 528.379C1662.09 544.441 1707.42 711.566 1610.57 735.16C1560.7 747.31 1432.98 750.597 1384.52 666.742C1354.78 615.299 1341.11 553.002 1240.76 516.908C1165.61 489.879 1078.47 563.264 1014.17 516.182C822.388 375.743 683.896 514.422 694.727 403.672C706.472 283.589 802.417 258.14 793.829 173.882C780.647 44.625 559.223 44 364.491 204.721C317.344 243.631 165.462 296.203 39.2381 190.225C-40.0204 123.675 -128.673 53.8653 -147.18 44C-159.583 84.2608 -179.419 123.514 -210 151.322C-186.833 173.552 -54.9078 230.506 7.892 281.963C239.946 472.098 301.255 336.645 343.533 287.272C492.669 113.111 607.417 241.91 593.054 430.533C584.774 539.239 657.814 580.817 760.455 571.664C819.722 566.382 881.421 526.74 937.646 536.04C1002.39 546.752 1099.18 567.363 1124.28 628.504C1182.71 770.878 1287.18 785.32 1357.98 775.428C1382.35 772.021 1405.68 764.299 1430.19 762.935C1570.69 755.16 1620.14 905.235 1707.86 910.712C1881.71 921.572 1737.62 620.997 1901.74 673.455L1901.73 673.469Z" fill="#27007A" fill-opacity="0.6"/>
<path d="M-67 902.813C-35.2887 872.029 11.9583 828.282 55.159 816.362C138.885 793.248 194.316 848.357 210.617 861.518C261.987 902.972 315.152 912.829 357.015 885.637C412.427 849.651 420.741 763.546 521.264 716.726C626.545 667.684 703.896 724.492 729.564 743.269C794.56 790.8 825.959 688.577 891.494 691.044C983.779 694.521 998.324 823.719 1084.64 798.21C1154.63 777.524 1197.06 784.136 1242.98 822.209C1293.48 864.081 1358.58 908.338 1376.11 859.316C1392.97 812.145 1435.01 778.712 1479.56 773.495C1483.7 787.141 1480.14 804.86 1481.36 819.593C1482.91 838.317 1505.97 886.955 1508 905.54C1487.41 885.334 1429.37 905.496 1414.77 924.067C1360.33 993.303 1331.91 924.889 1281.12 911.411C1197.98 889.349 1163.81 986.312 1078.34 896.514C1038.27 854.421 1020.74 808.423 910.089 784.424C854.639 772.393 839.233 819.646 749.137 790.218C741.968 787.877 638.352 764.282 549.958 816.54C476.735 859.826 485.112 951.595 414.246 988.913C372.388 1010.95 337.708 1004.58 307.411 987.259C263.907 962.38 219.624 924.567 173.56 910.165C113.284 891.321 68.8231 903.409 17.3903 938.333C-8.89387 956.177 -31.9015 984.105 -60.038 997.117C-63.9304 971.079 -61.111 922.523 -66.9952 902.823L-67 902.813Z" fill="#27007A" fill-opacity="0.5"/>
<path d="M1306.3 1762.91C1225.08 1699.53 1134.48 1724.42 1141.54 1817.84C1145.34 1868.05 1156.92 1916.8 1152.01 1946.08C1131.89 2066.06 959.7 1982.09 875.64 1896.96C827.307 1848.02 760.45 1784.55 722.688 1681.43C697.449 1612.49 690.771 1520.9 733.054 1497.93C795.961 1463.76 864.545 1512.66 919.32 1519.77C1069.99 1539.36 1116.62 1450.51 1059.36 1366.32C1015.88 1302.4 1134.73 1321.31 1230.28 1343.67C1332 1367.47 1398.33 1330.22 1400.17 1273.19C1403.92 1156.1 1190.45 1165.95 1183.45 1106.38C1178.77 1066.46 1259.91 1058.49 1320 1095.38C1447.8 1173.84 1526.12 1341.77 1728.69 1260.12C1748.7 1252.05 1733.45 1026.8 1720.13 1046.17C1606.52 1211.57 1355.87 952.086 1176.86 1012.24C1149.29 1021.51 1107.06 1039.23 1099.34 1076.49C1089.51 1124 1160.5 1156.27 1204.9 1200.13C1242.08 1236.82 1221.21 1269.65 1137.49 1278.34C1096.76 1282.56 1065.92 1281.15 1022.69 1273.55C986.77 1267.28 940.07 1245.27 908.82 1273.11C876.76 1301.71 910.44 1339.73 921.37 1359.81C942.47 1398.59 958.68 1439.89 933.46 1459.71C881.46 1500.6 830.182 1428.06 738.543 1410.36C678.108 1398.68 617.445 1419.27 563.217 1398.51C511.173 1378.6 463.731 1336.18 403.202 1336.18C348.538 1336.18 299.396 1362.91 267.533 1413.48C240.601 1456.23 226.607 1512.49 233.258 1561.51C241.843 1624.79 251.43 1664.09 183.048 1693.77C138.346 1713.17 76.629 1654.82 43.932 1704.43C27.735 1729.02 28.4 1759.91 7.138 1780.37C-8.609 1795.52 -30.368 1811.81 -50.126 1820.74C-92.9798 1840.13 -137.097 1824.9 -181.536 1826.31L-210 1950.16C-196.584 1960.96 -176.874 1896.47 -162.141 1893.41C-116.419 1883.93 -46.4579 2026.36 104.777 1950.7C137.876 1934.15 149.969 1906.53 159.911 1871.72C219.714 1662.45 412.419 1825.25 475.904 1703.32C527.007 1605.16 365.481 1559.05 395.114 1465.09C425.264 1369.5 599.42 1393.49 637.014 1496.97C663.234 1569.15 659.452 1650.41 657.376 1726.23C646.627 2119.3 856.57 2179.31 936.1 2210.29C1109.95 2278.01 1426.78 2360.98 1426.78 2360.98C1436.89 2358.05 1479.5 2282 1479.5 2282C1342.59 2158.61 1124.68 2031.8 1266.69 1916.71C1351.51 1847.97 1412.17 1893.07 1468.36 1915.32C1611.95 1972.19 1688.79 1789.07 1772 1893.39C1760.04 1881.33 1767.49 1757.95 1767.49 1757.95C1682.56 1755.03 1685.71 1835.75 1612.31 1833.54C1600.4 1833.19 1587.01 1828.44 1576.64 1822.89C1551.09 1809.22 1520.34 1801.79 1491.26 1803.13C1484.2 1803.46 1393.15 1830.69 1306.29 1762.9L1306.3 1762.91ZM1022.15 2163.41C997.33 2159.48 818.641 2118.43 776.459 1987.09C768.592 1962.58 784.124 1944.24 816.74 1946.34C837.646 1947.68 977.33 1992.45 1047.12 2067.12C1070.47 2092.11 1092.48 2174.56 1022.15 2163.4V2163.41Z" fill="#00158A" fill-opacity="0.4"/>
</g>
<defs>
<clipPath id="clip0_2784_36">
<rect width="1440" height="2103" fill="white"/>
</clipPath>
</defs>
</svg>
