<svg width="30" height="16" viewBox="0 0 30 16" fill="none" xmlns="http://www.w3.org/2000/svg">
<path d="M29.4278 7.50457L22.7086 0.785295C22.4672 0.503449 22.043 0.470593 21.7612 0.712019C21.4793 0.953387 21.4465 1.37757 21.6879 1.65942C21.7104 1.68569 21.7349 1.71023 21.7612 1.73269L27.3314 7.30968H0.729887C0.358827 7.30968 0.0579834 7.61053 0.0579834 7.98164C0.0579834 8.35276 0.358827 8.65355 0.729887 8.65355H27.3314L21.7612 14.2238C21.4793 14.4651 21.4465 14.8893 21.6879 15.1712C21.9293 15.453 22.3535 15.4859 22.6353 15.2445C22.6616 15.2219 22.6861 15.1975 22.7086 15.1712L29.4279 8.45191C29.6883 8.18992 29.6883 7.76666 29.4278 7.50457Z" fill="white"/>
</svg>
