<svg preserveAspectRatio="none" viewBox="0 0 544 2118" fill="none" xmlns="http://www.w3.org/2000/svg">
<g clip-path="url(#clip0_2799_33)">
<path d="M577.986 87.604C577.426 34.9252 560.008 -4.4552 540.885 2.28819C502.52 15.8126 365.174 34.2642 272.23 34.2642C179.286 34.2642 30.7838 12.0077 -0.647839 0.643156C-6.53811 -1.49162 -12.557 1.68543 -17.6157 10.212C-27.4481 26.8005 -34 56.499 -34 90.4043V2028.57C-34 2029.5 -33.9954 2030.44 -33.9862 2031.36C-33.4257 2084.04 -16.0076 2123.42 3.11513 2116.67C41.48 2103.15 178.826 2082.99 271.77 2082.99C364.714 2082.99 513.216 2106.94 544.648 2118.32C550.538 2120.45 556.557 2117.28 561.616 2108.75C571.448 2092.16 578 2062.46 578 2028.57V90.4043C578 89.4751 577.995 88.5333 577.986 87.6166V87.604Z" fill="url(#paint0_radial_2799_33)"/>
</g>
<defs>
<radialGradient id="paint0_radial_2799_33" cx="0" cy="0" r="1" gradientUnits="userSpaceOnUse" gradientTransform="translate(269.682 368.338) rotate(-2.00173) scale(428.662 1700.85)">
<stop stop-color="white"/>
<stop offset="1" stop-color="#F4DB6C"/>
</radialGradient>
<clipPath id="clip0_2799_33">
<rect width="544" height="2118" fill="white"/>
</clipPath>
</defs>
</svg>
