<svg width="24" height="27" viewBox="0 0 24 27" fill="none" xmlns="http://www.w3.org/2000/svg">
<path d="M15 17.5C15 17.5 13.875 16.4286 12 16.4286C10.125 16.4286 9 17.5 9 17.5M17 11.0714C17 11.6632 16.5523 12.1429 16 12.1429C15.4477 12.1429 15 11.6632 15 11.0714C15 10.4797 15.4477 10 16 10C16.5523 10 17 10.4797 17 11.0714ZM9 11.0714C9 11.6632 8.55228 12.1429 8 12.1429C7.44772 12.1429 7 11.6632 7 11.0714C7 10.4797 7.44772 10 8 10C8.55228 10 9 10.4797 9 11.0714ZM22 13.2143C22 19.1316 17.5228 23.9286 12 23.9286C6.47715 23.9286 2 19.1316 2 13.2143C2 7.29695 6.47715 2.5 12 2.5C17.5228 2.5 22 7.29695 22 13.2143Z" stroke="#681E00" stroke-width="1.5" stroke-linecap="round"/>
</svg>
