<svg width="24" height="27" viewBox="0 0 24 27" fill="none" xmlns="http://www.w3.org/2000/svg">
<path d="M8 8.07143H12M8 12.3571H16M8 16.6429H16M5 2.71428H19C20.1046 2.71428 21 3.67367 21 4.85714V21.0939C21 22.5781 19.6259 23.6128 18.3226 23.1101L16.7608 22.5077C16.2728 22.3195 15.7356 22.3418 15.2626 22.5698L12.8207 23.7471C12.2988 23.9988 11.7012 23.9988 11.1793 23.7471L8.73737 22.5698C8.26439 22.3418 7.72721 22.3195 7.2392 22.5077L5.67744 23.1101C4.37412 23.6128 3 22.5781 3 21.0939V4.85714C3 3.67367 3.89543 2.71428 5 2.71428Z" stroke="#681E00" stroke-width="1.5" stroke-linecap="round"/>
</svg>
