<svg width="24" height="26" viewBox="0 0 24 26" fill="none" xmlns="http://www.w3.org/2000/svg">
<path d="M6 8.85715H4C2.89543 8.85715 2 9.81654 2 11V20.6429C2 21.8263 2.89543 22.7857 4 22.7857H6C7.10457 22.7857 8 21.8263 8 20.6429V11C8 9.81654 7.10457 8.85715 6 8.85715Z" stroke="#681E00" stroke-width="1.5" stroke-linecap="round" stroke-linejoin="round"/>
<path d="M15.8769 22.7857H12.2111C11.4214 22.7857 10.6494 22.5353 9.9923 22.0659L8.4453 20.9609C8.1671 20.7622 8 20.4277 8 20.0695V11.2845C8 11.0981 8.04541 10.9149 8.13176 10.753L12 3.50001H13.3287C15.3254 3.50001 16.5164 5.88432 15.4088 7.66438L14 9.92858H19.4384C20.7396 9.92858 21.6943 11.2387 21.3787 12.5912L19.7575 19.5394C19.3123 21.4473 17.7124 22.7857 15.8769 22.7857Z" stroke="#681E00" stroke-width="1.5" stroke-linecap="round" stroke-linejoin="round"/>
</svg>
