<svg width="24" height="27" viewBox="0 0 24 27" fill="none" xmlns="http://www.w3.org/2000/svg">
<path d="M16.6379 11.6375C15.897 9.67232 14.0996 8.28572 12 8.28572C9.23858 8.28572 7 10.6842 7 13.6429C7 15.8925 8.29416 17.8182 10.1283 18.612M11.9156 24.3568C6.43159 24.3082 2 19.53 2 13.6429C2 7.72553 6.47715 2.92858 12 2.92858C17.4947 2.92858 21.9543 7.67671 21.9997 13.5524M12.0573 15.1681L14.6699 23.5658C14.9982 24.6209 16.3911 24.6209 16.7193 23.5658L17.6841 20.4648C17.7916 20.1193 18.0447 19.8481 18.3672 19.7329L21.2614 18.6993C22.2462 18.3476 22.2462 16.8552 21.2614 16.5035L13.4235 13.7043C12.5792 13.4027 11.7758 14.2634 12.0573 15.1681Z" stroke="#681E00" stroke-width="1.5" stroke-linecap="round" stroke-linejoin="round"/>
</svg>
