<svg width="20" height="20" viewBox="0 0 20 20" fill="none" xmlns="http://www.w3.org/2000/svg">
<g clip-path="url(#clip0_2767_3)">
<path d="M14.6782 0C17.6174 0 20.0001 2.43046 20.0001 5.42858V14.5714C20.0001 17.5695 17.6174 20 14.6782 20H6.5553C3.61609 20 1.2334 17.5695 1.2334 14.5714C1.2334 14.098 1.60961 13.7142 2.0737 13.7142C2.53778 13.7142 2.914 14.098 2.914 14.5714C2.914 16.6228 4.54426 18.2858 6.5553 18.2858H11.6373C10.7438 17.3147 10.1966 16.0082 10.1966 14.5714V5.42858C10.1966 3.99175 10.7438 2.68532 11.6373 1.71428H6.5553C4.54426 1.71428 2.914 3.37722 2.914 5.42858C2.914 5.90195 2.53778 6.28572 2.0737 6.28572C1.60961 6.28572 1.2334 5.90195 1.2334 5.42858C1.2334 2.43046 3.61609 0 6.5553 0H14.6782Z" fill="white"/>
<path d="M4.84078 7.10823C4.51262 7.44296 4.51262 7.98568 4.84078 8.32041L5.6471 9.14289H0.840301C0.376214 9.14289 0 9.52665 0 10C0 10.4734 0.376216 10.8572 0.840301 10.8572H5.6471L4.84078 11.6797C4.51262 12.0144 4.51262 12.5571 4.84078 12.8918C5.16893 13.2266 5.70098 13.2266 6.02914 12.8918L7.4777 11.4142C8.2434 10.6332 8.2434 9.36687 7.4777 8.58582L6.02914 7.10823C5.70098 6.77349 5.16893 6.77349 4.84078 7.10823Z" fill="white"/>
</g>
<defs>
<clipPath id="clip0_2767_3">
<rect width="20" height="20" fill="white"/>
</clipPath>
</defs>
</svg>
