<svg viewBox="0 0 100 37" fill="none" xmlns="http://www.w3.org/2000/svg">
<path d="M43.3186 18.1552C43.5694 18.1733 43.8202 18.1129 44.053 17.9742C44.662 17.6061 44.8591 16.8037 44.4889 16.1762C44.262 15.784 43.862 15.5547 43.45 15.5306C43.1992 15.5125 42.9484 15.5728 42.7155 15.7116C42.1065 16.0796 41.9095 16.8821 42.2797 17.5096C42.5125 17.9018 42.9066 18.125 43.3186 18.1552Z" fill="#681E00"/>
<path d="M97.4445 19.3196C96.0354 19.3196 94.8889 20.4479 94.8889 21.8476C94.8889 23.2474 96.0294 24.3757 97.4445 24.3757C98.8596 24.3757 99.994 23.2414 99.994 21.8476C99.994 20.4539 98.8536 19.3196 97.4445 19.3196ZM97.4445 23.9956C96.2443 23.9956 95.2771 23.0362 95.2771 21.8476C95.2771 20.659 96.2503 19.6997 97.4445 19.6997C98.6386 19.6997 99.6119 20.659 99.6119 21.8476C99.6119 23.0362 98.6386 23.9956 97.4445 23.9956Z" fill="#681E00"/>
<path d="M98.4655 21.365C98.4655 20.7858 98.0893 20.5323 97.6952 20.5323H96.4175V23.1569H96.9429V22.0528H97.4743L97.8266 23.1569C97.8266 23.1569 98.37 23.1569 98.4177 23.1569C98.4177 23.1569 98.0177 22.0588 98.0296 22.0528C98.1251 22.0287 98.4655 21.8718 98.4655 21.365ZM97.546 21.6184H96.9429V20.9728H97.5937C97.5937 20.9728 97.9341 20.9487 97.946 21.2926C97.958 21.6304 97.546 21.6184 97.546 21.6184Z" fill="#681E00"/>
<path d="M90.4048 19.7963C90.4048 19.7963 90.1122 20.7194 90.0227 20.9668C89.748 20.647 88.7031 19.7299 86.0043 20.1824C83.2159 20.822 80.8096 23.1871 78.6422 27.4226C78.2481 28.1949 77.9675 28.8224 77.7346 29.5645C76.4629 31.3142 74.2835 33.5043 73.2983 34.1077C73.1251 34.2163 72.9281 34.2827 72.7848 34.2887C72.6236 34.2947 72.4385 34.156 72.4027 33.9086C72.3788 33.7698 72.331 33.257 72.2534 32.4726C72.0444 29.5826 71.5727 27.851 70.7487 27.1813C70.4203 26.9158 69.9188 26.7951 69.1665 26.6925C69.0411 26.6744 68.7963 26.6624 68.7963 26.6624C70.5457 24.5507 73.7163 21.9502 75.3702 21.0573C75.4239 21.0271 75.5971 20.9426 75.6508 20.9125C75.5314 21.0392 75.4299 21.2443 75.4239 21.4012C75.406 22.0347 75.7762 22.6139 76.3554 22.8432C76.7196 22.988 77.1256 22.9819 77.4898 22.819C77.8541 22.6561 78.1347 22.3605 78.284 21.9864C78.5885 21.2141 78.2183 20.3332 77.46 20.0316C77.3704 19.9954 77.2809 19.9712 77.1973 19.9531L77.1614 19.9411C77.054 19.923 76.9405 19.9109 76.8211 19.9109C74.4925 19.9109 70.6711 23.4284 68.8201 25.4496C69.6322 23.3862 70.7249 20.8039 70.9279 20.3815C71.0115 20.2005 71.113 20.0074 71.1607 19.935C71.2264 19.8445 71.3518 19.7842 71.3518 19.7842H67.5603C67.5603 19.7842 67.614 19.8566 67.62 19.9833C67.626 20.11 67.5424 20.4418 67.4289 20.8159C67.2976 21.2624 66.1631 24.2188 64.0554 29.6067C62.0134 31.5978 59.3742 33.8241 58.807 34.2223C58.3114 34.5662 58.0726 34.6628 57.8756 34.7231C57.786 34.7472 57.6487 34.7472 57.5949 34.705C57.5233 34.6447 57.3621 34.4938 57.4755 33.9327C57.5233 33.7035 57.6546 33.2751 57.8278 32.7984C59.4757 28.4483 61.9775 21.9925 62.2164 21.4313C62.3 21.2322 62.3836 21.0512 62.4492 20.8944V20.8823C62.5209 20.7375 62.5746 20.6168 62.6164 20.5142C62.6821 20.3513 62.8194 20.0738 62.897 19.9712C62.9926 19.8445 63.0941 19.7842 63.0941 19.7842H59.3324V19.8868C59.3563 20.1402 59.3086 20.4539 59.2011 20.8159C59.0936 21.1719 58.3353 23.169 56.9441 26.7468H52.4421C52.7645 25.9142 53.075 25.1238 53.3556 24.4119C54.0243 22.7044 54.4244 21.6485 54.514 21.4313C54.7528 20.822 54.9319 20.3272 55.0991 20.0859C55.2066 19.923 55.3618 19.7842 55.3618 19.7842H51.5703C51.5703 19.7842 51.6241 19.8506 51.636 20.0376C51.6479 20.2307 51.5823 20.472 51.4808 20.8159C51.3494 21.2684 50.2388 24.1645 48.0833 29.6731C44.8292 33.8121 40.1481 36.5271 37.8612 35.604C36.9716 35.248 36.5655 34.3249 36.685 32.9432V32.9131C36.6909 32.8407 36.7089 32.6717 36.7208 32.5812C36.7745 32.5511 36.8462 32.5149 36.9357 32.4666C42.9245 29.2869 45.486 26.8796 46.5727 25.4255C47.5937 24.1705 48.0475 22.5536 47.6773 21.4917C47.2116 20.1703 45.486 19.386 43.6589 19.6696C40.1481 20.2246 37.1567 22.6018 35.246 26.3547C34.1832 28.4543 33.7055 31.0487 33.9682 33.3052C32.8397 33.9388 30.1827 35.423 28.9169 35.4833C28.6362 35.4894 28.3198 35.4713 28.1944 35.2842C27.8899 34.7533 28.2959 32.5511 32.1292 24.786C32.2128 24.611 32.2964 24.436 32.38 24.2731C32.5591 23.9051 32.7442 23.5189 32.9532 23.1268C33.1323 22.7889 33.3055 22.4148 33.4786 22.0528C33.6816 21.6184 33.8906 21.1719 34.0936 20.8039C34.3205 20.4056 34.4638 20.104 34.5414 20.0014C34.625 19.8807 34.7683 19.7782 34.7683 19.7782H30.6007C30.6007 19.7782 30.6425 19.8506 30.6544 20.0316C30.6604 20.2367 30.5947 20.4237 30.4932 20.7073C30.1349 21.7209 29.5737 23.0664 29.4483 23.3198C29.3229 23.5551 29.1079 24.0016 28.8393 24.5688L28.8273 24.5929C28.3616 25.5703 27.7287 26.9097 27.2092 27.8268C25.5254 30.8194 23.2804 33.3776 21.0473 34.8377C20.3785 35.2782 19.6799 35.4471 19.0888 35.3204C18.5753 35.2058 18.241 34.8136 18.2171 34.2947C18.2171 34.2827 18.2171 34.2646 18.2171 34.2465V34.2344C18.2171 34.1318 18.2231 34.0293 18.2469 33.9327C18.5933 34.3128 19.0888 34.4818 19.5904 34.3913C19.9785 34.3189 20.3129 34.0956 20.5398 33.7638C20.7666 33.4319 20.8502 33.0337 20.7786 32.6355C20.6711 32.0322 20.2173 31.5555 19.6322 31.4288C19.3635 31.3564 18.4141 31.2177 17.5245 32.4183C17.1244 32.9553 16.9453 33.7517 17.0408 34.5542C17.0408 34.5723 17.0408 34.5904 17.0468 34.6085C17.0587 34.705 17.1005 34.9162 17.1304 35.0369C17.0169 35.1153 16.2646 35.423 15.775 35.5075C15.3212 35.5557 15.0346 35.3084 14.963 35.1274C14.7838 34.6447 14.7361 33.7216 15.1779 32.2373C15.8885 29.8782 20.8025 17.6906 21.3578 16.3089L21.3697 16.2848C21.4055 16.2063 21.4772 16.0374 21.5548 15.8262C21.6503 15.5789 21.6981 15.4461 21.8056 15.2168C21.8115 15.2168 22.1817 15.4522 22.1817 15.4522C23.776 13.7326 25.5553 10.8727 26.2957 7.86203C26.5405 6.7579 27.5615 1.21313 23.6745 0.30207C21.316 -0.216809 18.2231 1.06229 14.2106 4.22987C12.5925 5.5874 9.23094 8.40504 6.04847 13.2198C2.5376 18.5353 -0.0597219 25.7453 -1.32292e-05 29.9989C-0.053751 33.5587 0.770228 35.248 1.73154 36.2858C2.1495 36.7383 2.67493 36.8167 2.97945 36.8228C3.82731 36.8228 4.69308 36.3039 5.15284 36.0625C7.46954 34.8559 9.89371 32.1589 12.2522 29.3835L12.294 29.3352C12.5567 29.0275 12.8194 28.7198 13.0821 28.4121C12.6164 29.9506 12.1208 31.6521 11.9895 32.8588C11.8342 34.2585 12.0014 35.236 12.491 35.8393C12.9866 36.4487 13.7867 36.859 14.3898 36.8529C14.6943 36.8529 15.2376 36.7926 15.7452 36.6357C16.6348 36.3582 17.4827 35.8876 17.5125 35.8695C17.9066 36.3401 18.5395 36.5995 19.2978 36.6176H19.3575C21.6444 36.6176 24.0984 33.7276 26.4211 30.5359C25.6628 32.9131 25.615 34.6205 26.2658 35.6161C26.6599 36.2194 27.3107 36.5513 28.2004 36.6056C30.2126 36.7564 33.7831 34.4697 34.1115 34.2042C34.3862 35.1877 34.8997 35.8393 35.2997 36.1229C35.8013 36.4789 36.5536 36.7866 37.8254 36.8348C38.4404 36.859 39.127 36.7926 39.8794 36.6116C42.3573 36.0203 44.8889 34.3913 47.3012 31.6641L46.4414 33.8603C46.1368 34.6386 45.8861 35.2842 45.7069 35.7367C45.5875 36.0444 45.5457 36.1289 45.4323 36.2798C45.3188 36.4306 45.1218 36.5694 45.1218 36.5694H49.0506C49.0506 36.5694 48.9491 36.503 48.9133 36.3703C48.8775 36.2496 48.8775 36.1108 48.9849 35.8091C49.4566 34.4516 50.4777 31.7788 52.1077 27.5915H56.6097C56.1559 28.7681 55.6902 29.9506 55.2484 31.0789L55.2245 31.1392C55.0872 31.4952 54.4901 33.1484 54.4065 33.5768C54.2572 34.3792 54.1915 35.4773 54.717 36.1108C54.9857 36.4366 55.3797 36.5995 55.8932 36.5995H55.9171C57.0158 36.5875 58.1383 35.8152 58.8787 35.3023L59.0876 35.1575C59.6071 34.7774 61.5835 33.1966 63.3926 31.3082C63.0404 32.2071 62.694 33.0639 62.4015 33.8L62.3238 33.9991C61.9537 34.9464 61.6611 35.6885 61.5058 36.0927C61.4103 36.3522 61.1476 36.5694 61.1476 36.5694C62.3418 36.5694 64.8794 36.5694 64.9033 36.5694C64.9033 36.5694 64.7361 36.3703 64.8077 36.1651C64.8077 36.1651 67.2677 29.5524 67.9962 27.6881C69.2202 28.1044 69.2739 29.7877 69.3217 31.5676C69.3396 32.2192 69.3695 32.9734 69.459 33.6431C69.7158 35.5738 70.2651 36.4608 71.3458 36.5995C71.8354 36.6357 72.2832 36.4246 72.5281 36.2496C73.7401 35.3687 77.0779 31.7848 77.2868 31.3926C77.054 33.1122 77.454 34.9584 78.2422 35.9298C78.7318 36.5332 79.2154 36.8228 79.9379 36.8228C81.8366 36.8228 84.2548 34.9282 85.9864 32.5692C85.7774 33.263 85.6221 34.0232 85.6042 34.2525C85.5386 34.9645 85.7595 35.61 86.0998 36.0867C86.4043 36.509 86.8999 36.8107 87.4731 36.8167C87.8732 36.8228 88.5598 36.7504 89.2823 36.3703C90.2615 35.8574 91.2049 34.6266 91.6348 33.9991L91.7303 33.8543H91.5572C91.5572 33.8543 91.3542 33.8543 91.187 33.8302H91.1452L91.1153 33.8543C91.0556 33.9146 90.978 33.9991 90.8944 34.0896C90.5123 34.4938 89.9391 35.1093 89.557 35.2782C89.0793 35.4954 88.6792 35.417 88.5777 35.2239C88.1956 34.4818 88.6255 33.2871 89.2286 31.6279C89.4017 31.1573 93.1872 20.6953 93.1872 20.6953C93.3246 20.3393 93.4022 20.116 93.4559 20.0074C93.5156 19.8868 93.6768 19.7782 93.6768 19.7782H90.4048V19.7963ZM42.8469 21.0512C43.3604 20.7134 43.9276 20.5203 44.4113 20.5203C44.5486 20.5203 44.674 20.5324 44.7874 20.5625C45.0263 20.6229 45.1994 20.7556 45.2949 20.9306C45.9398 22.3786 44.5964 25.6005 41.3064 28.2794C39.1629 30.023 37.7358 31.0427 36.7148 31.5676C37.4015 28.8163 39.8555 23.0302 42.8529 21.0512M2.1077 34.0232C1.90469 32.4002 2.10173 31.0789 2.16741 30.5962C2.40624 28.931 2.91377 27.0123 3.67207 24.8825C5.15284 20.8823 6.24551 18.5232 8.01886 15.5487C11.2312 10.1487 14.7958 4.77892 19.465 2.10608C20.7189 1.37 22.9878 0.332238 24.391 1.5148C26.1404 2.99301 25.9374 6.08215 25.1672 8.51365C24.594 10.3177 23.2147 12.9543 22.6236 13.3947L22.5698 13.3042C22.2653 13.3163 18.9455 13.2982 18.9455 13.2982C18.9455 13.2982 18.9933 13.4671 18.9933 13.6964C18.9933 13.9679 18.9037 14.2455 18.8022 14.4446C18.7903 14.4687 15.0346 23.3802 14.5211 24.5929C13.9599 26.1435 7.02769 35.055 3.64221 35.5437C2.80629 35.6583 2.251 35.0851 2.1077 34.0232ZM89.5032 22.3484C89.4316 22.5355 89.348 22.7768 89.2405 23.0664C88.9718 23.7784 88.6195 24.7377 88.2613 25.697C87.8015 26.9278 87.3179 28.1949 87.0253 28.9491C86.8641 29.3593 86.7686 29.6128 86.7566 29.649C85.1385 33.263 82.7024 34.8981 81.0067 34.9162C80.5589 34.9041 79.508 34.5783 79.6752 32.7924C79.7827 31.3685 80.4812 29.4317 81.753 27.0364C83.8607 23.3319 85.4848 21.908 86.476 21.365C86.9238 21.1055 87.3776 21.0211 87.7776 21.0211C88.2613 21.0211 88.6613 21.1417 88.8763 21.2262C89.342 21.4012 89.6465 21.6425 89.7182 21.7873C89.6823 21.8658 89.6167 22.0468 89.5032 22.3484Z" fill="#681E00"/>
<path d="M47.6176 18.1491C48.3401 18.1491 48.9193 17.5639 48.9193 16.8459C48.9193 16.1279 48.3341 15.5427 47.6176 15.5427C46.9011 15.5427 46.316 16.1219 46.316 16.8459C46.316 17.5699 46.9011 18.1491 47.6176 18.1491Z" fill="#681E00"/>
</svg>
