<svg viewBox="0 0 79 29" fill="none" xmlns="http://www.w3.org/2000/svg">
<path d="M33.8024 14.4087C33.998 14.4229 34.1936 14.3758 34.3753 14.2676C34.8503 13.9805 35.004 13.3546 34.7152 12.8651C34.5383 12.5592 34.2262 12.3804 33.9049 12.3616C33.7093 12.3475 33.5137 12.3945 33.332 12.5028C32.857 12.7898 32.7033 13.4158 32.992 13.9052C33.1737 14.2111 33.4811 14.3852 33.8024 14.4087Z" fill="#681E00"/>
<path d="M76.0386 15.3183C74.939 15.3183 74.0444 16.1987 74.0444 17.291C74.0444 18.3832 74.9343 19.2637 76.0386 19.2637C77.1428 19.2637 78.0281 18.3785 78.0281 17.291C78.0281 16.2034 77.1382 15.3183 76.0386 15.3183ZM76.0386 18.967C75.1021 18.967 74.3473 18.2185 74.3473 17.291C74.3473 16.3635 75.1067 15.6149 76.0386 15.6149C76.9704 15.6149 77.7299 16.3635 77.7299 17.291C77.7299 18.2185 76.9704 18.967 76.0386 18.967Z" fill="#681E00"/>
<path d="M76.8348 16.914C76.8348 16.4623 76.5413 16.2646 76.234 16.2646H75.2373V18.3118H75.6471V17.4505H76.0616L76.3364 18.3118C76.3364 18.3118 76.7602 18.3118 76.7975 18.3118C76.7975 18.3118 76.4855 17.4552 76.4948 17.4505C76.5693 17.4317 76.8348 17.3094 76.8348 16.914ZM76.1175 17.1117H75.6471V16.6081H76.1548C76.1548 16.6081 76.4203 16.5893 76.4296 16.8576C76.4389 17.1211 76.1175 17.1117 76.1175 17.1117Z" fill="#681E00"/>
<path d="M70.5454 15.6902C70.5454 15.6902 70.3171 16.4105 70.2472 16.6036C70.0329 16.354 69.2175 15.6384 67.1115 15.9915C64.9357 16.4906 63.058 18.3362 61.3667 21.6412C61.0592 22.2439 60.8402 22.7335 60.6585 23.3126C59.6661 24.678 57.9655 26.387 57.1967 26.8578C57.0616 26.9426 56.9078 26.9944 56.796 26.9991C56.6702 27.0038 56.5258 26.8955 56.4978 26.7025C56.4792 26.5942 56.4419 26.194 56.3813 25.5819C56.2183 23.3267 55.8502 21.9755 55.2072 21.4529C54.951 21.2458 54.5596 21.1516 53.9725 21.0716C53.8747 21.0574 53.6836 21.048 53.6836 21.048C55.0488 19.4002 57.5228 17.371 58.8135 16.6742C58.8554 16.6507 58.9905 16.5847 59.0324 16.5612C58.9393 16.6601 58.86 16.8202 58.8554 16.9426C58.8414 17.4369 59.1303 17.8889 59.5822 18.0678C59.8664 18.1808 60.1833 18.1761 60.4675 18.049C60.7517 17.9218 60.9707 17.6912 61.0872 17.3992C61.3248 16.7966 61.0359 16.1092 60.4442 15.8738C60.3743 15.8456 60.3044 15.8267 60.2392 15.8126L60.2112 15.8032C60.1274 15.7891 60.0388 15.7797 59.9456 15.7797C58.1285 15.7797 55.1466 18.5245 53.7023 20.1017C54.3359 18.4915 55.1886 16.4765 55.347 16.1469C55.4122 16.0057 55.4914 15.855 55.5287 15.7985C55.5799 15.7279 55.6778 15.6808 55.6778 15.6808H52.7192C52.7192 15.6808 52.7611 15.7373 52.7658 15.8362C52.7704 15.935 52.7052 16.194 52.6167 16.4859C52.5142 16.8343 51.6289 19.1412 49.9842 23.3456C48.3908 24.8993 46.3314 26.6365 45.8887 26.9473C45.502 27.2156 45.3157 27.291 45.1619 27.338C45.092 27.3569 44.9849 27.3569 44.9429 27.3239C44.887 27.2768 44.7612 27.1591 44.8497 26.7213C44.887 26.5424 44.9895 26.2081 45.1246 25.8362C46.4106 22.4416 48.3628 17.404 48.5492 16.9661C48.6144 16.8107 48.6796 16.6695 48.7309 16.5471V16.5377C48.7868 16.4247 48.8287 16.3305 48.8613 16.2505C48.9126 16.1234 49.0197 15.9068 49.0803 15.8267C49.1549 15.7279 49.2341 15.6808 49.2341 15.6808H46.2988V15.7608C46.3174 15.9586 46.2801 16.2034 46.1963 16.4859C46.1124 16.7637 45.5207 18.322 44.4351 21.1139H40.922C41.1736 20.4642 41.4159 19.8475 41.6349 19.2919C42.1567 17.9595 42.4689 17.1356 42.5388 16.9661C42.7251 16.4906 42.8649 16.1045 42.9954 15.9162C43.0792 15.7891 43.2004 15.6808 43.2004 15.6808H40.2418C40.2418 15.6808 40.2837 15.7326 40.293 15.8785C40.3023 16.0292 40.2511 16.2175 40.1719 16.4859C40.0694 16.839 39.2028 19.0989 37.5208 23.3974C34.9815 26.6271 31.3287 28.7458 29.5442 28.0254C28.8499 27.7476 28.5331 27.0273 28.6263 25.9492V25.9256C28.631 25.8691 28.6449 25.7373 28.6543 25.6667C28.6962 25.6431 28.7521 25.6149 28.822 25.5772C33.4952 23.096 35.494 21.2175 36.342 20.0829C37.1387 19.1036 37.4928 17.8418 37.2039 17.0132C36.8405 15.9821 35.494 15.3701 34.0683 15.5913C31.3287 16.0245 28.9944 17.8795 27.5034 20.8079C26.6741 22.4463 26.3013 24.4708 26.5064 26.2316C25.6258 26.726 23.5524 27.8842 22.5646 27.9313C22.3457 27.936 22.0987 27.9218 22.0009 27.7759C21.7633 27.3616 22.0801 25.6431 25.0713 19.5838C25.1365 19.4473 25.2018 19.3107 25.267 19.1836C25.4068 18.8964 25.5512 18.5951 25.7143 18.2891C25.8541 18.0254 25.9892 17.7335 26.1243 17.451C26.2827 17.1121 26.4458 16.7637 26.6042 16.4765C26.7812 16.1657 26.8931 15.9303 26.9536 15.8503C27.0189 15.7561 27.1307 15.6761 27.1307 15.6761H23.8785C23.8785 15.6761 23.9112 15.7326 23.9205 15.8738C23.9251 16.0339 23.8739 16.1799 23.7947 16.4011C23.5151 17.1921 23.0772 18.242 22.9793 18.4397C22.8815 18.6234 22.7137 18.9718 22.5041 19.4143L22.4948 19.4331C22.1313 20.1959 21.6375 21.2411 21.2321 21.9567C19.9182 24.2919 18.1663 26.2881 16.4238 27.4275C15.9019 27.7712 15.3568 27.903 14.8955 27.8041C14.4949 27.7147 14.2339 27.4087 14.2153 27.0038C14.2153 26.9944 14.2153 26.9802 14.2153 26.9661V26.9567C14.2153 26.8767 14.22 26.7966 14.2386 26.7213C14.5088 27.0179 14.8955 27.1497 15.2869 27.0791C15.5898 27.0226 15.8507 26.8484 16.0277 26.5895C16.2048 26.3305 16.27 26.0198 16.2141 25.709C16.1302 25.2382 15.7761 24.8663 15.3195 24.7674C15.1099 24.7109 14.3691 24.6026 13.6748 25.5396C13.3627 25.9586 13.2229 26.58 13.2974 27.2062C13.2974 27.2203 13.2974 27.2345 13.3021 27.2486C13.3114 27.3239 13.344 27.4887 13.3673 27.5829C13.2788 27.6441 12.6917 27.8842 12.3097 27.9501C11.9556 27.9878 11.7319 27.7947 11.676 27.6535C11.5362 27.2768 11.499 26.5565 11.8438 25.3983C12.3982 23.5574 16.2327 14.0471 16.6661 12.9689L16.6754 12.9501C16.7033 12.8889 16.7592 12.7571 16.8198 12.5923C16.8944 12.3992 16.9316 12.2957 17.0155 12.1168C17.0202 12.1168 17.309 12.3004 17.309 12.3004C18.553 10.9586 19.9415 8.72693 20.5192 6.37759C20.7103 5.51601 21.507 1.18926 18.4738 0.478341C16.6334 0.0734444 14.22 1.07156 11.089 3.54331C9.82631 4.60264 7.20316 6.80132 4.71979 10.5584C1.98016 14.7062 -0.046603 20.3324 -1.07234e-05 23.6516C-0.0419438 26.4294 0.60103 27.7477 1.35117 28.5574C1.67731 28.9106 2.08732 28.9718 2.32495 28.9765C2.98656 28.9765 3.66214 28.5716 4.02091 28.3832C5.82869 27.4416 7.72033 25.3371 9.56073 23.1714L9.59334 23.1337C9.79835 22.8936 10.0034 22.6535 10.2084 22.4134C9.84494 23.6139 9.45823 24.9416 9.35572 25.8832C9.23458 26.9755 9.36504 27.7382 9.7471 28.209C10.1338 28.6846 10.7582 29.0047 11.2287 29C11.4664 29 11.8903 28.9529 12.2864 28.8305C12.9806 28.6139 13.6422 28.2467 13.6655 28.2326C13.973 28.5998 14.4669 28.8023 15.0586 28.8164H15.1052C16.8897 28.8164 18.8046 26.5612 20.6171 24.0706C20.0254 25.9256 19.9881 27.258 20.4959 28.0348C20.8035 28.5057 21.3113 28.7646 22.0055 28.807C23.5757 28.9247 26.3619 27.1403 26.6182 26.9331C26.8325 27.7006 27.2332 28.209 27.5454 28.4303C27.9367 28.7081 28.5238 28.9482 29.5162 28.9859C29.9961 29.0047 30.5319 28.9529 31.119 28.8117C33.0526 28.3503 35.0281 27.0791 36.9104 24.951L36.2395 26.6648C36.0019 27.2721 35.8062 27.7759 35.6664 28.129C35.5732 28.3691 35.5406 28.435 35.4521 28.5527C35.3635 28.6704 35.2098 28.7787 35.2098 28.7787H38.2756C38.2756 28.7787 38.1964 28.7269 38.1684 28.6234C38.1404 28.5292 38.1404 28.4209 38.2243 28.1855C38.5924 27.1262 39.3891 25.0405 40.6611 21.7731H44.1741C43.82 22.6912 43.4566 23.6139 43.1118 24.4944L43.0932 24.5414C42.986 24.8192 42.5201 26.1092 42.4549 26.4435C42.3384 27.0697 42.2872 27.9266 42.6972 28.4209C42.9068 28.6751 43.2144 28.8023 43.615 28.8023H43.6337C44.491 28.7928 45.3669 28.1902 45.9447 27.79L46.1077 27.677C46.5131 27.3804 48.0553 26.1469 49.467 24.6733C49.1921 25.3748 48.9219 26.0433 48.6936 26.6177L48.633 26.7731C48.3442 27.5122 48.1159 28.0913 47.9947 28.4068C47.9202 28.6092 47.7152 28.7787 47.7152 28.7787C48.647 28.7787 50.6272 28.7787 50.6458 28.7787C50.6458 28.7787 50.5154 28.6234 50.5713 28.4633C50.5713 28.4633 52.4909 23.3032 53.0593 21.8484C54.0144 22.1733 54.0564 23.4868 54.0937 24.8757C54.1076 25.3842 54.1309 25.9727 54.2008 26.4953C54.4012 28.0019 54.8298 28.694 55.6731 28.8023C56.0552 28.8305 56.4046 28.6657 56.5957 28.5292C57.5415 27.8418 60.146 25.0452 60.3091 24.7392C60.1274 26.081 60.4395 27.5217 61.0545 28.2797C61.4366 28.7505 61.814 28.9765 62.3778 28.9765C63.8594 28.9765 65.7464 27.4981 67.0976 25.6573C66.9345 26.1987 66.8133 26.7919 66.7994 26.9708C66.7481 27.5264 66.9205 28.0301 67.1861 28.4021C67.4237 28.7316 67.8104 28.967 68.2577 28.9718C68.5699 28.9765 69.1057 28.92 69.6695 28.6234C70.4336 28.2232 71.1697 27.2627 71.5052 26.7731L71.5798 26.6601H71.4446C71.4446 26.6601 71.2862 26.6601 71.1558 26.6412H71.1231L71.0998 26.6601C71.0533 26.7072 70.9927 26.7731 70.9275 26.8437C70.6293 27.1591 70.182 27.6394 69.8838 27.7712C69.511 27.9407 69.1989 27.8795 69.1197 27.7288C68.8215 27.1497 69.1569 26.2175 69.6275 24.9228C69.7626 24.5556 72.7166 16.3917 72.7166 16.3917C72.8238 16.1139 72.8843 15.9397 72.9263 15.855C72.9729 15.7608 73.0987 15.6761 73.0987 15.6761H70.5454V15.6902ZM33.4346 16.6695C33.8353 16.4058 34.2779 16.2552 34.6553 16.2552C34.7625 16.2552 34.8604 16.2646 34.9489 16.2881C35.1352 16.3352 35.2704 16.4388 35.3449 16.5753C35.8481 17.7053 34.7998 20.2194 32.2325 22.3098C30.5599 23.6704 29.4463 24.4661 28.6496 24.8757C29.1854 22.7288 31.1003 18.2138 33.4393 16.6695M1.6447 26.7919C1.48628 25.5254 1.64004 24.4944 1.69129 24.1177C1.87766 22.8183 2.27369 21.3211 2.86542 19.6591C4.02091 16.5377 4.87354 14.6968 6.25734 12.3757C8.764 8.16196 11.5456 3.97175 15.1891 1.88606C16.1675 1.31167 17.938 0.501882 19.0329 1.42467C20.3981 2.57815 20.2397 4.9887 19.6386 6.88606C19.1914 8.29379 18.1151 10.3512 17.6538 10.6949L17.6119 10.6243C17.3743 10.6337 14.7837 10.6196 14.7837 10.6196C14.7837 10.6196 14.821 10.7514 14.821 10.9303C14.821 11.1422 14.7511 11.3588 14.6719 11.5141C14.6626 11.533 11.7319 18.4868 11.3312 19.4331C10.8933 20.6431 5.4839 27.597 2.84212 27.9783C2.18983 28.0678 1.75652 27.6205 1.6447 26.7919ZM69.8419 17.6817C69.7859 17.8277 69.7207 18.016 69.6368 18.242C69.4272 18.7976 69.1523 19.5461 68.8727 20.2947C68.514 21.2552 68.1366 22.2439 67.9083 22.8324C67.7825 23.1525 67.7079 23.3503 67.6986 23.3785C66.436 26.1987 64.535 27.4746 63.2118 27.4887C62.8623 27.4793 62.0423 27.225 62.1728 25.8315C62.2566 24.7203 62.8018 23.209 63.7942 21.3399C65.4389 18.4492 66.7062 17.338 67.4796 16.9143C67.8291 16.7119 68.1832 16.646 68.4953 16.646C68.8727 16.646 69.1849 16.7401 69.3526 16.806C69.7161 16.9426 69.9537 17.1309 70.0096 17.2439C69.9816 17.3051 69.9304 17.4463 69.8419 17.6817Z" fill="#681E00"/>
<path d="M37.1569 14.404C37.7204 14.404 38.1722 13.9476 38.1722 13.3875C38.1722 12.8275 37.7158 12.371 37.1569 12.371C36.598 12.371 36.1416 12.8228 36.1416 13.3875C36.1416 13.9523 36.598 14.404 37.1569 14.404Z" fill="#681E00"/>
</svg>

