<svg viewBox="0 0 30 30" fill="none" xmlns="http://www.w3.org/2000/svg">
<path d="M2.59687 2.60806C0.920276 4.29094 0 6.52413 0 8.89292V20.5454L0.795986 20.4231C2.75024 20.1227 4.26023 18.4983 4.46914 16.4831L4.49559 8.89558C4.49559 7.73644 4.95044 6.63845 5.77551 5.80632C6.60058 4.97685 7.69275 4.51957 8.84573 4.51957H29.2742V5.71375e-06H8.84573C6.49216 -0.00265285 4.27081 0.922529 2.59687 2.60806Z" fill="#FF0000"/>
<path d="M24.7866 13.2769L24.7813 20.479C24.7813 21.6408 24.3265 22.7361 23.5014 23.5656C22.6763 24.395 21.5868 24.8523 20.4312 24.8523H0V29.3719H20.4312C22.7874 29.3719 25.0087 28.444 26.6826 26.7612C28.3592 25.0783 29.2795 22.8477 29.2795 20.479V8.82648L28.4835 8.94875C26.3759 9.27044 24.7866 11.1314 24.7866 13.2769Z" fill="#FF0000"/>
<path d="M20.8277 20.5587V9.05773H17.4878L14.6397 12.7558L11.7889 9.05773H8.44897V20.5587H11.9767V14.7152L14.6397 17.9134L17.3026 14.7152V20.5587H20.8277Z" fill="#FF0000"/>
</svg>

