<svg viewBox="0 0 120 26" fill="none" xmlns="http://www.w3.org/2000/svg">
<path d="M2.25062 2.24833C0.797573 3.69908 0 5.62425 0 7.66631V17.7116L0.689855 17.6061C2.38354 17.3472 3.6922 15.9468 3.87326 14.2096L3.89618 7.6686C3.89618 6.66934 4.29038 5.7228 5.00544 5.00545C5.72051 4.29038 6.66705 3.89618 7.6663 3.89618H25.371V4.92564e-06H7.6663C5.62654 -0.00228694 3.70137 0.795284 2.25062 2.24833Z" fill="#FF0000"/>
<path d="M21.4817 11.4456L21.4771 17.6543C21.4771 18.6558 21.0829 19.6001 20.3679 20.3151C19.6528 21.0302 18.7086 21.4244 17.707 21.4244H0V25.3206H17.707C19.7491 25.3206 21.6742 24.5207 23.125 23.07C24.578 21.6192 25.3756 19.6963 25.3756 17.6543V7.60904L24.6857 7.71444C22.8591 7.99176 21.4817 9.59607 21.4817 11.4456Z" fill="#FF0000"/>
<path d="M18.0508 17.723V7.8084H15.1561L12.6878 10.9964L10.2171 7.8084H7.32251V17.723H10.3799V12.6855L12.6878 15.4426L14.9957 12.6855V17.723H18.0508Z" fill="#FF0000"/>
<path d="M66.6865 19.7147H70.3925V8.91307H75.5721V5.64487H66.6865V19.7147Z" fill="#FF0000"/>
<path d="M86.7473 10.8978H81.2445V5.64487H77.5408V19.7147H81.2445V14.205H86.7473V19.7147H90.4509V5.64487H86.7473V10.8978Z" fill="#FF0000"/>
<path d="M107.619 8.91307H111.946V19.7147H115.652V8.91307H120V5.64487H107.619V8.91307Z" fill="#FF0000"/>
<path d="M96.8819 13.5816V5.64946H93.1759V19.7147H96.2746L102.169 11.6977V19.7147H105.875V5.64946H102.678L96.8819 13.5816Z" fill="#FF0000"/>
<path d="M41.7028 10.483L37.9556 5.64487H34.3024V19.7147H38.0061V11.3539L41.7028 15.7703L45.4019 11.3539V19.7147H49.1056V5.64487H45.4523L41.7028 10.483Z" fill="#FF0000"/>
<path d="M56.176 5.64717L50.4784 19.717H54.2073L54.9774 17.7437H60.7414L61.5115 19.717H65.2999L59.6024 5.64717H56.176ZM56.137 14.7688L57.8582 10.3547L59.5794 14.7688H56.137Z" fill="#FF0000"/>
</svg>
