<svg viewBox="0 0 174 78" fill="none" xmlns="http://www.w3.org/2000/svg">
<g clip-path="url(#clip0_1101_666)">
<path d="M134.5 39.3987C114.241 39.3987 97.8049 30.816 97.8049 20.2397C97.8049 9.66344 114.23 1.07022 134.5 1.07022C154.78 1.07022 171.236 9.65295 171.236 20.2397C171.236 30.8265 154.78 39.3987 134.5 39.3987Z" fill="#DA2128"/>
<path d="M134.51 0.251801C113.95 0.251801 97.275 9.19127 97.275 20.2292C97.275 31.2671 113.95 40.2066 134.51 40.2066C155.081 40.2066 171.746 31.2566 171.746 20.2292C171.746 9.20176 155.081 0.251801 134.51 0.251801ZM134.51 37.4786C114.511 37.4786 98.314 29.7562 98.314 20.2292C98.314 10.7022 114.521 2.9903 134.51 2.9903C154.499 2.9903 170.717 10.7127 170.717 20.2397C170.717 29.7667 154.51 37.4786 134.51 37.4786Z" fill="#F4DB6C"/>
<path d="M134.51 0.251801C113.95 0.251801 97.275 9.19127 97.275 20.2292C97.275 31.2671 113.95 40.2066 134.51 40.2066C155.081 40.2066 171.746 31.2566 171.746 20.2292C171.746 9.20176 155.081 0.251801 134.51 0.251801ZM134.51 37.4786C114.511 37.4786 98.314 29.7562 98.314 20.2292C98.314 10.7022 114.521 2.9903 134.51 2.9903C154.499 2.9903 170.717 10.7127 170.717 20.2397C170.717 29.7667 154.51 37.4786 134.51 37.4786Z" stroke="#DA2128" stroke-width="0.401639"/>
<path d="M124.672 14.9201C125.16 14.7208 125.555 14.6578 125.555 14.6578C125.181 15.4447 124.765 16.5569 124.838 17.3648C124.973 18.7393 126.126 18.6659 127.103 18.1308C127.103 18.1308 127.414 17.9524 127.653 17.7635C127.778 18.7918 128.817 18.8023 130.853 16.9976C130.988 18.5505 132.048 18.477 132.339 18.477C133.014 18.477 134.344 17.9419 135.269 17.134L134.697 18.456H135.944L137.035 15.7805H138.417C138.105 16.5569 138.011 16.7773 137.835 17.2389C137.482 18.1413 137.97 18.477 138.313 18.477C139.113 18.477 139.632 18.1413 140.411 17.4802C140.38 18.8233 142.313 18.6239 143.175 18.0888C143.175 18.0888 144.775 17.3019 145.097 15.2873C145.097 15.2873 145.814 15.1824 146.125 14.7208L145.107 17.0501C144.245 19.2429 146.323 18.3826 147.206 17.837C147.528 17.6376 147.829 17.4068 147.829 17.4068C147.403 19.5053 150.177 17.9629 150.603 17.3858C150.603 17.3858 150.292 18.5819 151.237 18.477C152.131 18.3826 152.941 17.9314 153.824 16.9241L153.658 16.7563C152.588 17.8685 151.362 18.3301 151.84 17.155L153.616 12.8426L152.453 12.8216L150.77 16.7982C150.396 17.2599 150.281 17.3753 149.71 17.7006C149.242 17.9629 148.827 17.8999 149.242 16.9032L150.905 12.8531H149.731L148.099 16.7563C147.611 17.2599 147.164 17.5222 146.853 17.6796C146.25 17.9944 145.876 18.0678 146.385 16.9451L148.037 12.8426H146.863L146.624 13.4407C146.24 14.6368 145.149 14.8572 145.149 14.8572C145.294 14.1017 144.91 12.8216 143.798 12.8531C143.341 12.8741 143.081 13.2623 143.05 13.3672L144.141 10.6707C134.043 6.01212 123.934 8.74012 115.83 12.6852L117.493 8.7716C117.358 8.7716 109.015 8.74012 109.015 8.74012L108.121 10.0412H115.529L114.199 13.2938L113.721 13.5666C113.721 13.5666 107.353 16.7563 106.875 21.5618C106.605 24.3212 108.776 24.1114 110.168 23.0622C111.082 22.3906 112.36 21.0057 113.254 18.9072C114.365 16.3261 115.498 13.6191 115.498 13.6191C115.498 13.6191 115.747 13.5246 116.277 13.5036C116.963 13.4827 116.256 14.7627 116.184 14.9516C115.695 16.0848 115.633 16.2212 115.155 17.2914C114.677 18.3511 115.737 18.8757 117.139 18.0468C117.181 18.0153 114.937 20.0089 114.656 22.0339C114.5 23.1461 114.843 23.5448 114.989 23.6602C115.758 24.3527 117.378 23.5133 118.313 21.2365C118.781 20.0928 121.139 14.4375 121.139 14.4375C121.139 14.4375 121.607 13.3253 121.95 12.8846C122.469 12.2131 122.999 12.318 123.124 12.381C123.903 12.7377 123.394 14.8886 123.394 14.8886C122.324 15.3923 120.931 16.1162 120.661 17.1235C120.609 17.3333 120.422 18.7183 121.95 18.4245C124.007 18.0258 124.661 14.9306 124.661 14.9306M111.02 20.586C109.431 23.7651 108.298 23.6497 107.768 23.3979C107.384 23.209 106.771 22.2857 107.986 20.0718C108.651 18.8547 109.243 17.9209 110.459 16.7458C112.111 15.1614 114.054 13.724 114.054 13.724C114.054 13.724 112.246 18.1098 111.01 20.586M127.716 17.2809C127.716 17.2809 127.466 17.5327 127.134 17.7425C126.801 17.9524 126.407 18.0678 126.136 17.8789C125.991 17.774 125.752 17.3124 126.116 16.2316C126.116 16.2316 126.542 14.9726 126.957 14.2801C127.57 13.2518 128.599 12.8531 129.056 13.6925C129.056 13.6925 127.622 17.2179 127.716 17.2704M143.289 13.4827C143.445 13.3148 143.736 13.1889 143.923 13.3043C144.598 13.7555 144.183 14.8886 144.183 14.8886C144.183 14.8886 143.424 14.8781 143.227 14.4375C143.092 14.1332 143.092 13.682 143.289 13.4722M144.079 15.2139C144.079 15.2139 143.518 16.9661 142.375 17.858C141.72 18.3616 141.17 18.2777 141.336 17.4802C141.398 17.2389 142.531 14.5214 142.791 13.9024C142.604 15.1509 144.068 15.2139 144.068 15.2139M123.352 11.9823C121.565 11.636 120.329 13.2518 119.581 15.088C118.251 18.2986 118.365 18.1832 116.526 22.4746C116.194 23.272 115.737 23.7127 115.332 23.5343C114.885 23.3455 115.165 22.3592 115.706 21.1211C116.298 19.8515 116.848 18.9701 118.334 16.7877L118.168 16.6199C117.274 17.7845 115.945 18.2672 116.537 16.9766C116.952 16.0638 117.15 15.5601 117.596 14.5319C118.137 13.2833 117.129 12.958 115.519 13.3672L115.602 13.2308C124.786 9.0444 134.23 8.56175 142.894 10.7861C142.167 12.5174 140.713 16.1162 140.713 16.1162C140.567 16.4205 140.411 17.0186 140.411 17.0186C139.476 17.8894 138.687 18.2881 138.947 17.2704L140.754 12.8111H139.611L138.531 15.4028H137.139L138.219 12.8111C137.939 12.8111 137.035 12.8111 137.035 12.8111L135.435 16.6513C134.76 17.2494 133.471 17.8789 132.89 17.8894C132.401 17.9104 131.757 17.7006 132.017 16.3471C132.152 15.6651 132.432 14.8676 132.9 13.8289C133.44 12.6433 133.762 12.2865 134.199 11.7514C135.321 10.3979 136.463 11.1324 135.518 12.3285C135.352 12.5279 135.154 12.7167 134.999 12.8951L135.809 13.6925C136.837 12.6328 137.035 10.7651 135.539 10.6707C133.908 10.5658 132.557 12.0767 131.84 13.3253C131.321 14.2486 130.874 15.6021 130.812 16.6094C130.812 16.6094 130.417 16.9976 129.887 17.3648C128.962 18.0153 128.609 17.6796 129.035 16.5884L130.614 12.8007H129.461L129.222 13.3882C129.108 13.2623 129.077 13.1994 128.921 13.0944C128.225 12.4544 126.635 12.7587 125.762 14.2276C125.762 14.2276 125.451 14.3116 125.118 14.406C124.838 14.5004 124.682 14.5424 124.682 14.5424C124.807 13.6191 124.433 12.1921 123.373 11.9823M121.181 17.816C121.181 17.816 120.921 17.6271 121.056 17.1025C121.305 16.1897 123.3 15.2873 123.3 15.2873C123.124 15.8854 122.76 16.6723 122.542 17.0605C122.282 17.5327 121.648 18.1517 121.181 17.8265" fill="#F4DB6C"/>
<path d="M153.543 12.0137C154.427 11.7724 154.832 10.7442 154.354 9.76837C154.312 10.5553 153.73 11.1219 153.325 11.2583C152.972 11.3842 152.608 11.5731 151.601 11.2583C151.995 11.8144 152.64 12.2551 153.543 12.0032" fill="#F4DB6C"/>
<path d="M162.987 26.5246C163.185 24.0904 161.429 23.7966 160.806 24.6885L162.582 20.3236L152.162 20.2922C151.549 20.2922 150.499 20.3236 150.292 21.268C150.084 22.2228 150.427 23.2405 150.749 24.3002C150.988 25.0977 150.666 26.6295 150.583 26.9653C150.167 28.6126 149.554 29.1897 149.429 29.3051C149.138 29.5779 147.933 30.0186 148.172 28.1299C148.172 28.1719 148.307 27.3535 148.453 26.8604C148.712 26.1469 149.17 24.5835 150.406 24.4891L150.312 24.2478C149.17 24.1429 148.266 24.8563 147.881 25.4229C146.874 26.8918 147.216 28.4972 147.216 28.4972C147.216 28.4972 144.609 30.4278 145.637 28.0985L147.362 24.0065H146.146L145.128 26.4826C143.268 27.0387 143.726 25.276 143.726 25.276C143.944 23.912 144.858 22.3697 146.146 22.5795C146.562 22.6425 146.718 22.7998 147.009 23.1461L147.351 22.9677C147.029 22.632 146.385 22.1388 145.554 21.887C142.552 20.9742 140.765 21.1525 139.144 21.4988C135.84 22.1808 133.305 23.8805 131.071 25.6223L131.695 24.1324C130.012 24.7304 129.43 24.678 129.43 24.678C129.7 23.5133 129.752 21.4883 128.287 21.2155C127.207 21.0056 126.448 21.7506 126.23 22.2962C125.814 23.314 125.908 24.8563 127.944 25.1082C127.404 27.1437 126.791 28.2034 126.365 28.7595C125.544 29.8297 125.014 30.05 124.235 29.8822C123.217 29.6513 123.165 28.707 123.186 27.364C123.207 26.3672 124.183 21.5932 126.718 20.46C127.872 19.9459 128.474 20.1977 128.952 20.4915C129.201 20.6489 129.368 20.8902 129.503 21.0161L129.648 20.8063C129.648 20.8063 129.17 19.7466 127.986 19.5367C127.633 19.4843 126.905 19.5367 126.407 19.7046C124.755 20.2187 123.186 21.4463 122.292 24.2373C122.178 24.6465 121.669 26.2308 122.105 28.2559C122.396 29.6303 123.259 29.9241 123.633 30.113C124.048 30.3228 125.7 30.6166 127.207 29.1162C127.716 28.6021 128.318 27.7942 128.89 26.5666C129.222 25.8111 129.368 25.2131 129.368 25.2131C129.368 25.2131 130.116 25.1396 130.199 25.0767C130.199 25.0767 128.775 28.5601 128.204 29.7982H129.336L130.521 26.9023C130.521 26.9023 131.747 26.3987 131.414 27.2801C131.04 28.2873 131.165 27.8886 130.791 28.9274C130.365 30.0815 131.726 30.092 133.284 29.0008L132.962 29.7982H134.032L135.788 25.6642C135.788 25.6642 136.058 25.4754 136.515 25.2865C136.796 25.1816 137.534 24.8039 137.232 25.5278L135.445 29.7877C135.83 29.7877 136.65 29.7877 136.65 29.7877L138.271 25.8216C140.006 24.8563 139.591 25.6642 139.518 25.8426L138.406 28.4552C137.845 29.7143 138.448 30.2074 139.985 29.4835C140.245 29.3575 140.359 29.2841 140.359 29.2841C140.65 30.6796 143.206 28.9064 144.65 26.9968C144.65 26.9968 144.796 26.9968 144.941 26.9548L144.339 28.4552C143.892 30.113 144.993 30.1969 147.289 28.9064C147.289 28.9064 147.59 29.8192 148.806 29.8192C149.596 29.8927 150.499 29.1792 150.832 28.707C150.832 28.707 151.268 28.6651 150.572 29.6513C149.907 30.5851 149.294 31.0258 148.848 31.9072C147.819 33.9427 148.536 35.1493 149.003 35.2228C149.803 35.3487 150.707 35.0969 151.995 32.4003C151.995 32.4003 154.499 26.6505 155.278 24.7829C155.84 23.4399 156.567 23.5028 156.795 23.6392C157.533 24.0694 157.065 26.2098 157.065 26.2098C153.44 27.4374 153.699 30.2809 155.611 29.7143C156.276 29.5149 157.72 28.4342 158.343 26.2203C158.343 26.2203 158.946 26.063 159.174 25.9895C159.174 25.9895 158.998 26.5351 158.582 27.4689C157.98 28.8434 158.364 29.7458 159.372 29.7877C162.125 29.9241 162.925 26.8394 162.925 26.8394C162.967 26.8394 163.704 26.8604 164.224 26.3043L164.037 26.1154C163.694 26.5456 163.029 26.5351 162.998 26.5351M128.048 24.6045C128.048 24.6045 127.934 24.615 127.425 24.4681C126.469 24.1953 126.324 23.0621 126.791 22.3801C127.207 21.7926 127.768 22.0444 127.934 22.2647C128.422 22.9153 128.048 24.6045 128.048 24.6045ZM133.523 28.4132C133.388 28.6231 131.3 30.05 131.861 28.7175C132.142 28.0355 132.204 27.8781 132.432 27.3325C133.18 25.5908 130.739 26.4197 130.739 26.4197C130.697 26.4407 130.832 26.1679 130.832 26.1679C132.142 25.255 134.749 23.8386 135.539 23.5133L133.513 28.4237L133.523 28.4132ZM142.032 28.9798C141.824 29.1162 141.097 29.2421 141.689 27.8781C141.731 27.8781 140.536 27.8781 140.536 27.8781C140.38 28.1929 140.297 28.4657 140.276 28.9064C140.276 28.9064 139.954 29.1582 139.663 29.2421C139.528 29.2841 139.071 29.3785 139.435 28.5916L140.713 25.6013C141.253 24.3632 140.328 24.3842 139.497 24.7094C138.915 24.9298 138.521 25.2026 138.521 25.2026C138.521 25.2026 138.998 24.2688 138.115 24.2793C137.575 24.2897 136.64 24.4996 135.954 25.0557L136.786 23.1041C136.786 23.1041 139.798 21.6772 145.18 22.2647C144.266 22.2962 143.32 22.7264 142.718 24.1533C142.396 24.9088 142.479 26.2308 143.03 26.7554C143.383 27.0807 144.079 27.0492 144.079 27.0492C144.079 27.0492 143.05 28.3398 142.022 28.9798M156.099 28.4657C155.86 28.8854 155.372 29.5254 154.884 29.368C154.551 29.2631 154.551 28.8119 154.551 28.791C154.603 27.5843 156.941 26.6086 156.941 26.6086C156.577 27.6683 156.265 28.1719 156.099 28.4657ZM158.312 25.8531C158.447 24.4576 157.689 23.2405 156.764 23.209C154.894 23.1671 153.969 24.8249 153.242 26.5771C151.985 29.5569 150.073 34.1735 150.073 34.1735C149.699 35.0129 149.253 35.0654 149.045 34.95C148.889 34.866 148.744 34.5827 148.879 33.8902C148.993 33.2817 149.357 32.1275 150.967 29.8612C151.486 29.1372 151.933 28.3398 151.195 28.2454C151.195 28.2454 151.85 27.1961 151.892 26.0734C151.933 24.9718 151.559 24.1114 151.362 23.6707C150.614 21.9395 150.354 21.3624 152.255 21.3624C154.125 21.3624 161.169 21.3624 161.169 21.3624C161.148 21.4358 159.361 25.5278 159.361 25.5278C158.946 25.6328 158.312 25.8321 158.312 25.8321M159.507 29.389C158.884 29.3261 159.174 28.4867 159.31 28.2139C159.694 27.343 160.151 26.2413 160.65 25.1186C160.442 26.1049 161.335 26.5771 161.865 26.6925C161.865 26.6925 160.722 29.5044 159.507 29.389ZM161.959 26.3567C161.959 26.3567 160.899 26.0944 160.961 25.2341C161.013 24.6989 161.502 24.573 161.72 24.7514C162.26 25.1921 161.948 26.3567 161.948 26.3567" fill="#F4DB6C"/>
<path d="M157.315 15.067C158.219 15.067 158.946 14.343 158.946 13.4512C158.946 12.5593 158.219 11.8354 157.315 11.8354C156.401 11.8354 155.673 12.5593 155.673 13.4512C155.673 14.343 156.411 15.067 157.315 15.067ZM157.315 12.0137C158.104 12.0137 158.749 12.6643 158.749 13.4512C158.749 14.2381 158.104 14.8886 157.315 14.8886C156.525 14.8886 155.86 14.2486 155.86 13.4512C155.86 12.6538 156.515 12.0137 157.315 12.0137Z" fill="#F4DB6C"/>
<path d="M156.93 13.6086H157.325L157.606 14.4375H158.042C158.042 14.4375 157.741 13.6086 157.751 13.6086C157.824 13.5876 158.094 13.4722 158.094 13.0944C158.094 12.6538 157.803 12.4649 157.502 12.4649H156.536V14.448H156.93V13.6191V13.6086ZM156.93 12.7797H157.419C157.419 12.7797 157.678 12.7587 157.678 13.021C157.678 13.2833 157.377 13.2623 157.377 13.2623H156.92V12.7797H156.93Z" fill="#F4DB6C"/>
<path d="M75.3744 45.4843C75.8107 45.5158 76.2471 45.4108 76.6523 45.1695C77.712 44.5295 78.0548 43.134 77.4107 42.0428C77.0159 41.3608 76.3198 40.9621 75.6029 40.9201C75.1666 40.8886 74.7302 40.9936 74.3251 41.2349C73.2654 41.8749 72.9225 43.2704 73.5666 44.3616C73.9718 45.0436 74.6575 45.4318 75.3744 45.4843Z" fill="#681E00"/>
<path d="M169.553 47.5093C167.102 47.5093 165.107 49.4713 165.107 51.9056C165.107 54.3398 167.091 56.3019 169.553 56.3019C172.016 56.3019 173.99 54.3293 173.99 51.9056C173.99 49.4818 172.005 47.5093 169.553 47.5093ZM169.553 55.6408C167.465 55.6408 165.782 53.9726 165.782 51.9056C165.782 49.8386 167.476 48.1703 169.553 48.1703C171.631 48.1703 173.325 49.8386 173.325 51.9056C173.325 53.9726 171.631 55.6408 169.553 55.6408Z" fill="#681E00"/>
<path d="M171.33 51.0662C171.33 50.0589 170.675 49.6183 169.99 49.6183H167.766V54.1824H168.681V52.2623H169.605L170.218 54.1824C170.218 54.1824 171.164 54.1824 171.247 54.1824C171.247 54.1824 170.551 52.2728 170.572 52.2623C170.738 52.2204 171.33 51.9476 171.33 51.0662ZM169.73 51.5069H168.681V50.3842H169.813C169.813 50.3842 170.405 50.3422 170.426 50.9403C170.447 51.5279 169.73 51.5069 169.73 51.5069Z" fill="#681E00"/>
<path d="M157.304 48.3382C157.304 48.3382 156.795 49.9435 156.639 50.3737C156.162 49.8176 154.343 48.2228 149.647 49.0097C144.796 50.1219 140.609 54.2349 136.837 61.6005C136.152 62.9435 135.663 64.0347 135.258 65.3253C133.045 68.368 129.253 72.1768 127.539 73.226C127.238 73.4149 126.895 73.5303 126.646 73.5408C126.365 73.5513 126.043 73.3099 125.981 72.8798C125.939 72.6384 125.856 71.7466 125.721 70.3826C125.357 65.3568 124.537 62.3455 123.103 61.1808C122.531 60.7191 121.659 60.5093 120.35 60.3309C120.131 60.2994 119.706 60.2785 119.706 60.2785C122.75 56.6061 128.266 52.0839 131.144 50.5311C131.238 50.4786 131.539 50.3317 131.632 50.2793C131.425 50.4996 131.248 50.8563 131.238 51.1291C131.206 52.2308 131.851 53.2381 132.858 53.6368C133.492 53.8886 134.199 53.8781 134.832 53.5948C135.466 53.3116 135.954 52.7974 136.214 52.1469C136.744 50.8039 136.1 49.272 134.78 48.7474C134.625 48.6844 134.469 48.6425 134.323 48.611L134.261 48.59C134.074 48.5585 133.877 48.5375 133.669 48.5375C129.617 48.5375 122.968 54.6546 119.747 58.1695C121.16 54.5811 123.061 50.0904 123.414 49.3559C123.56 49.0412 123.737 48.7054 123.82 48.5795C123.934 48.4221 124.152 48.3172 124.152 48.3172H117.555C117.555 48.3172 117.648 48.4431 117.659 48.6634C117.669 48.8838 117.524 49.4609 117.326 50.1114C117.098 50.8878 115.124 56.0291 111.456 65.3987C107.903 68.8612 103.311 72.7329 102.324 73.4254C101.462 74.0234 101.046 74.1913 100.703 74.2962C100.548 74.3382 100.309 74.3382 100.215 74.2647C100.091 74.1598 99.81 73.8975 100.007 72.9217C100.091 72.523 100.319 71.7781 100.62 70.9492C103.488 63.3842 107.841 52.1574 108.257 51.1816C108.402 50.8354 108.547 50.5206 108.662 50.2478V50.2268C108.786 49.975 108.88 49.7651 108.953 49.5868C109.067 49.3035 109.306 48.8208 109.441 48.6425C109.607 48.4221 109.784 48.3172 109.784 48.3172H103.238V48.4956C103.28 48.9362 103.197 49.4818 103.01 50.1114C102.823 50.7304 101.503 54.2034 99.0828 60.4254H91.2492C91.8102 58.9774 92.3505 57.6029 92.8388 56.3648C94.0024 53.3955 94.6985 51.5593 94.8543 51.1816C95.2699 50.1219 95.5816 49.2615 95.8725 48.8418C96.0595 48.5585 96.3296 48.3172 96.3296 48.3172H89.7324C89.7324 48.3172 89.8259 48.4326 89.8467 48.7579C89.8674 49.0936 89.7532 49.5133 89.5765 50.1114C89.348 50.8983 87.4156 55.9346 83.665 65.5141C78.0029 72.7119 69.8577 77.4334 65.8786 75.8281C64.3306 75.209 63.6241 73.6037 63.8319 71.201V71.1485C63.8423 71.0226 63.8734 70.7288 63.8942 70.5714C63.9877 70.519 64.1124 70.456 64.2682 70.3721C74.6887 64.8426 79.1457 60.6562 81.0365 58.1275C82.8131 55.9451 83.6027 53.1332 82.9586 51.2865C82.1482 48.9887 79.1457 47.6247 75.9666 48.1178C69.8577 49.0831 64.6526 53.2171 61.328 59.7433C59.4787 63.3947 58.6476 67.9064 59.1047 71.8305C57.1412 72.9322 52.5179 75.5133 50.3154 75.6183C49.8271 75.6287 49.2765 75.5973 49.0583 75.272C48.5284 74.3487 49.2349 70.519 55.9048 57.0153C56.0503 56.7111 56.1957 56.4068 56.3412 56.1235C56.6529 55.4835 56.9749 54.812 57.3385 54.13C57.6502 53.5424 57.9515 52.8919 58.2528 52.2623C58.606 51.5069 58.9697 50.7304 59.3229 50.0904C59.7177 49.3979 59.967 48.8733 60.1021 48.6949C60.2476 48.4851 60.4969 48.3067 60.4969 48.3067H53.2452C53.2452 48.3067 53.3179 48.4326 53.3387 48.7474C53.3491 49.1041 53.2348 49.4294 53.0582 49.9225C52.4348 51.6852 51.4582 54.025 51.24 54.4657C51.0219 54.8749 50.6478 55.6513 50.1803 56.6376L50.1595 56.6796C49.3492 58.3793 48.2479 60.7086 47.344 62.3035C44.4143 67.5077 40.5079 71.9564 36.6223 74.4956C35.4587 75.2615 34.2431 75.5553 33.2146 75.335C32.3211 75.1356 31.7393 74.4536 31.6978 73.5513C31.6978 73.5303 31.6978 73.4988 31.6978 73.4673V73.4463C31.6978 73.268 31.7081 73.0896 31.7497 72.9217C32.3523 73.5827 33.2146 73.8765 34.0873 73.7191C34.7626 73.5932 35.3444 73.205 35.7392 72.6279C36.134 72.0509 36.2794 71.3584 36.1548 70.6659C35.9678 69.6166 35.1782 68.7877 34.16 68.5674C33.6925 68.4415 32.0406 68.2002 30.4926 70.2881C29.7965 71.222 29.4848 72.607 29.6511 74.0024C29.6511 74.0339 29.6511 74.0654 29.6615 74.0969C29.6822 74.2647 29.755 74.632 29.8069 74.8418C29.6095 74.9782 28.3005 75.5133 27.4485 75.6602C26.6589 75.7442 26.1603 75.314 26.0356 74.9992C25.7239 74.1598 25.6408 72.5545 26.4096 69.9734C27.6459 65.8709 36.1963 44.6764 37.1625 42.2736L37.1833 42.2316C37.2456 42.0952 37.3703 41.8015 37.5054 41.4342C37.6716 41.004 37.7547 40.7732 37.9417 40.3745C37.9521 40.3745 38.5963 40.7837 38.5963 40.7837C41.3702 37.7934 44.4662 32.82 45.7545 27.5843C46.1804 25.6642 47.957 16.0218 41.1936 14.4374C37.0898 13.5351 31.7081 15.7595 24.7265 21.268C21.911 23.6287 16.0619 28.5287 10.5244 36.9015C4.41545 46.1453 -0.103895 58.6836 -2.26684e-06 66.0807C-0.093506 72.2712 1.34022 75.2091 3.0129 77.0137C3.74015 77.8007 4.6544 77.9371 5.18426 77.9476C6.65954 77.9476 8.16599 77.0452 8.96596 76.6255C12.997 74.5271 17.2151 69.837 21.3188 65.0105L21.3916 64.9266C21.8487 64.3915 22.3058 63.8563 22.763 63.3212C21.9526 65.9968 21.0903 68.9556 20.8617 71.0541C20.5916 73.4883 20.8825 75.1881 21.7344 76.2373C22.5967 77.297 23.9889 78.0105 25.0382 78C25.5681 78 26.5135 77.8951 27.3966 77.6223C28.9446 77.1396 30.4199 76.3212 30.4718 76.2898C31.1575 77.1082 32.2588 77.5593 33.5782 77.5908H33.6821C37.6612 77.5908 41.9312 72.565 45.9727 67.0145C44.6532 71.1485 44.5701 74.1179 45.7025 75.8491C46.3882 76.8983 47.5207 77.4754 49.0687 77.5698C52.5699 77.8321 58.7827 73.8555 59.3541 73.3939C59.832 75.1041 60.7255 76.2373 61.4215 76.7304C62.2942 77.3495 63.6033 77.8846 65.8162 77.9685C66.8863 78.0105 68.0811 77.8951 69.3901 77.5803C73.7017 76.5521 78.1068 73.7191 82.304 68.9766L80.808 72.7958C80.2781 74.1493 79.8418 75.272 79.5301 76.0589C79.3223 76.594 79.2496 76.7409 79.0522 77.0032C78.8548 77.2655 78.5119 77.5069 78.5119 77.5069H85.3481C85.3481 77.5069 85.1715 77.3915 85.1091 77.1606C85.0468 76.9508 85.0468 76.7095 85.2338 76.1848C86.0546 73.8241 87.8311 69.176 90.6674 61.8943H98.501C97.7114 63.9403 96.901 65.9968 96.1322 67.9588L96.0906 68.0638C95.8517 68.6828 94.8128 71.5577 94.6673 72.3027C94.4076 73.6982 94.2933 75.6078 95.2075 76.7095C95.6751 77.276 96.3608 77.5593 97.2542 77.5593H97.2958C99.2074 77.5383 101.161 76.1953 102.449 75.3035L102.813 75.0517C103.716 74.3906 107.155 71.6417 110.303 68.3576C109.69 69.9209 109.088 71.4108 108.579 72.6909L108.444 73.0371C107.799 74.6844 107.29 75.975 107.02 76.678C106.854 77.1292 106.397 77.5069 106.397 77.5069C108.475 77.5069 112.89 77.5069 112.932 77.5069C112.932 77.5069 112.641 77.1606 112.765 76.8039C112.765 76.8039 117.046 65.3043 118.313 62.0622C120.443 62.7861 120.537 65.7135 120.62 68.8087C120.651 69.9419 120.703 71.2534 120.859 72.4181C121.305 75.7756 122.261 77.318 124.142 77.5593C124.994 77.6223 125.773 77.2551 126.199 76.9508C128.308 75.4189 134.115 69.1865 134.479 68.5045C134.074 71.4948 134.77 74.7054 136.141 76.3947C136.993 77.4439 137.835 77.9476 139.092 77.9476C142.396 77.9476 146.603 74.653 149.616 70.5505C149.253 71.7571 148.983 73.0791 148.951 73.4778C148.837 74.7159 149.222 75.8386 149.814 76.6675C150.344 77.4019 151.206 77.9266 152.203 77.9371C152.899 77.9475 154.094 77.8216 155.351 77.1606C157.055 76.2688 158.697 74.1283 159.445 73.0371L159.611 72.7853H159.31C159.31 72.7853 158.956 72.7853 158.665 72.7434H158.593L158.541 72.7853C158.437 72.8902 158.302 73.0371 158.156 73.1945C157.491 73.8975 156.494 74.9677 155.829 75.2615C154.998 75.6392 154.302 75.5028 154.125 75.1671C153.46 73.8765 154.208 71.799 155.258 68.9137C155.559 68.0952 162.146 49.9015 162.146 49.9015C162.385 49.2825 162.52 48.8943 162.613 48.7054C162.717 48.4956 162.998 48.3067 162.998 48.3067H157.304V48.3382ZM74.5536 50.5206C75.4471 49.933 76.4341 49.5973 77.2756 49.5973C77.5146 49.5973 77.7327 49.6182 77.9301 49.6707C78.3457 49.7756 78.647 50.0065 78.8132 50.3107C79.9353 52.8289 77.5977 58.4318 71.8732 63.0904C68.1434 66.1227 65.6604 67.8959 63.8838 68.8087C65.0786 64.0242 69.3486 53.9621 74.564 50.5206M3.66742 73.0791C3.31418 70.2567 3.65703 67.9589 3.77131 67.1195C4.18689 64.2236 5.06998 60.887 6.38942 57.1832C8.96596 50.2268 10.8672 46.1243 13.9528 40.9516C19.5423 31.5609 25.7447 22.2228 33.8691 17.5747C36.0509 16.2946 39.9988 14.4899 42.4403 16.5464C45.4844 19.117 45.1311 24.4891 43.7909 28.7175C42.7935 31.8547 40.3936 36.4399 39.3651 37.2058L39.2716 37.0484C38.7417 37.0694 32.9652 37.0379 32.9652 37.0379C32.9652 37.0379 33.0484 37.3317 33.0484 37.7304C33.0484 38.2026 32.8925 38.6852 32.7159 39.0315C32.6951 39.0735 26.1603 54.5706 25.2668 56.6796C24.2902 59.3761 12.2282 74.8733 6.33747 75.7232C4.88297 75.9225 3.91676 74.9258 3.66742 73.0791ZM155.736 52.7764C155.611 53.1017 155.465 53.5214 155.278 54.025C154.811 55.2631 154.198 56.9314 153.575 58.5997C152.775 60.7401 151.933 62.9435 151.424 64.2551C151.144 64.9685 150.977 65.4092 150.957 65.4722C148.141 71.7571 143.902 74.6005 140.952 74.632C140.172 74.611 138.344 74.0444 138.635 70.9387C138.822 68.4625 140.037 65.0944 142.25 60.929C145.918 54.4867 148.744 52.0105 150.468 51.0662C151.247 50.615 152.037 50.4681 152.733 50.4681C153.575 50.4681 154.271 50.678 154.645 50.8249C155.455 51.1291 155.985 51.5488 156.11 51.8007C156.047 51.9371 155.933 52.2518 155.736 52.7764Z" fill="#681E00"/>
<path d="M82.8547 45.4738C84.1118 45.4738 85.1195 44.456 85.1195 43.2074C85.1195 41.9589 84.1014 40.9411 82.8547 40.9411C81.608 40.9411 80.5898 41.9484 80.5898 43.2074C80.5898 44.4665 81.608 45.4738 82.8547 45.4738Z" fill="#681E00"/>
</g>
<defs>
<clipPath id="clip0_1101_666">
<rect width="174" height="78" fill="white"/>
</clipPath>
</defs>
</svg>
