<svg viewBox="0 0 132 60" fill="none" xmlns="http://www.w3.org/2000/svg">
<g clip-path="url(#clip0_1101_749)">
<path d="M101.932 30.7455C86.5786 30.7455 74.1224 24.241 74.1224 16.2257C74.1224 8.21032 86.5707 1.69785 101.932 1.69785C117.302 1.69785 129.773 8.20237 129.773 16.2257C129.773 24.249 117.302 30.7455 101.932 30.7455Z" fill="#DA2128"/>
<path d="M101.94 1.07761C86.3585 1.07761 73.7213 7.85249 73.7213 16.2177C73.7213 24.5829 86.3585 31.3578 101.94 31.3578C117.53 31.3578 130.16 24.575 130.16 16.2177C130.16 7.86044 117.53 1.07761 101.94 1.07761ZM101.94 29.2904C86.7837 29.2904 74.5087 23.4379 74.5087 16.2177C74.5087 8.99754 86.7916 3.15301 101.94 3.15301C117.089 3.15301 129.38 9.00549 129.38 16.2257C129.38 23.4458 117.097 29.2904 101.94 29.2904Z" fill="#F4DB6C"/>
<path d="M101.94 1.07761C86.3585 1.07761 73.7213 7.85249 73.7213 16.2177C73.7213 24.5829 86.3585 31.3578 101.94 31.3578C117.53 31.3578 130.16 24.575 130.16 16.2177C130.16 7.86044 117.53 1.07761 101.94 1.07761ZM101.94 29.2904C86.7837 29.2904 74.5087 23.4379 74.5087 16.2177C74.5087 8.99754 86.7916 3.15301 101.94 3.15301C117.089 3.15301 129.38 9.00549 129.38 16.2257C129.38 23.4458 117.097 29.2904 101.94 29.2904Z" stroke="#DA2128" stroke-width="0.304387"/>
<path d="M94.4837 12.1941C94.8538 12.0431 95.153 11.9954 95.153 11.9954C94.8696 12.5917 94.5546 13.4346 94.6097 14.0469C94.7121 15.0886 95.5861 15.0329 96.3262 14.6274C96.3262 14.6274 96.5624 14.4922 96.7435 14.3491C96.838 15.1283 97.6253 15.1363 99.1686 13.7686C99.2709 14.9455 100.074 14.8898 100.295 14.8898C100.806 14.8898 101.814 14.4843 102.515 13.872L102.082 14.8739H103.027L103.853 12.8462H104.901C104.664 13.4346 104.594 13.6016 104.46 13.9515C104.192 14.6353 104.562 14.8898 104.822 14.8898C105.428 14.8898 105.822 14.6353 106.412 14.1344C106.389 15.1522 107.853 15.0011 108.507 14.5956C108.507 14.5956 109.719 13.9992 109.963 12.4725C109.963 12.4725 110.507 12.3929 110.743 12.0431L109.971 13.8084C109.318 15.4703 110.892 14.8182 111.562 14.4047C111.806 14.2536 112.034 14.0787 112.034 14.0787C111.711 15.6691 113.814 14.5002 114.136 14.0628C114.136 14.0628 113.9 14.9693 114.617 14.8898C115.294 14.8182 115.908 14.4763 116.577 13.7129L116.451 13.5857C115.64 14.4286 114.711 14.7785 115.073 13.8879L116.42 10.6197L115.538 10.6038L114.262 13.6175C113.979 13.9674 113.892 14.0549 113.459 14.3014C113.105 14.5002 112.79 14.4524 113.105 13.697L114.365 10.6277H113.475L112.239 13.5857C111.869 13.9674 111.53 14.1662 111.294 14.2855C110.837 14.524 110.554 14.5797 110.94 13.7288L112.192 10.6197H111.302L111.121 11.073C110.829 11.9795 110.003 12.1464 110.003 12.1464C110.113 11.5739 109.822 10.6038 108.979 10.6277C108.633 10.6436 108.436 10.9378 108.412 11.0173L109.239 8.9737C101.586 5.44313 93.9247 7.51058 87.7833 10.5004L89.0431 7.53443C88.9407 7.53443 82.6182 7.51058 82.6182 7.51058L81.941 8.49659H87.5549L86.5471 10.9616L86.1849 11.1684C86.1849 11.1684 81.3584 13.5857 80.9962 17.2276C80.7915 19.3189 82.4371 19.1599 83.4921 18.3647C84.185 17.8558 85.1535 16.8062 85.8306 15.2158C86.6731 13.2597 87.5313 11.2081 87.5313 11.2081C87.5313 11.2081 87.7203 11.1366 88.1218 11.1207C88.6415 11.1048 88.1061 12.0749 88.051 12.218C87.6809 13.0768 87.6337 13.1802 87.2715 13.9912C86.9093 14.7944 87.7124 15.192 88.7753 14.5638C88.8068 14.5399 87.1061 16.0507 86.8935 17.5854C86.7754 18.4283 87.0353 18.7305 87.1455 18.8179C87.7282 19.3428 88.9564 18.7066 89.6651 16.9811C90.0194 16.1144 91.8067 11.8284 91.8067 11.8284C91.8067 11.8284 92.161 10.9855 92.4208 10.6515C92.8145 10.1426 93.2161 10.2221 93.3106 10.2698C93.9011 10.5402 93.5153 12.1703 93.5153 12.1703C92.7043 12.552 91.6492 13.1006 91.4445 13.864C91.4051 14.023 91.2634 15.0727 92.4208 14.85C93.9798 14.5479 94.4759 12.2021 94.4759 12.2021M84.1378 16.4881C82.9331 18.8975 82.0749 18.81 81.6733 18.6192C81.382 18.476 80.9174 17.7763 81.8387 16.0985C82.3426 15.1761 82.7914 14.4683 83.7126 13.5778C84.9645 12.377 86.4369 11.2877 86.4369 11.2877C86.4369 11.2877 85.0669 14.6115 84.1299 16.4881M96.7907 13.9833C96.7907 13.9833 96.6018 14.1741 96.3498 14.3332C96.0978 14.4922 95.7986 14.5797 95.5939 14.4365C95.4837 14.357 95.3026 14.0071 95.5782 13.1881C95.5782 13.1881 95.901 12.2339 96.2159 11.7091C96.6805 10.9298 97.46 10.6277 97.8064 11.2638C97.8064 11.2638 96.7199 13.9356 96.7907 13.9753M108.593 11.1048C108.711 10.9775 108.932 10.8821 109.074 10.9696C109.585 11.3115 109.27 12.1703 109.27 12.1703C109.27 12.1703 108.696 12.1623 108.546 11.8284C108.444 11.5978 108.444 11.2558 108.593 11.0968M109.192 12.4168C109.192 12.4168 108.767 13.7447 107.9 14.4206C107.404 14.8023 106.987 14.7387 107.113 14.1344C107.16 13.9515 108.019 11.892 108.215 11.4228C108.074 12.3691 109.184 12.4168 109.184 12.4168M93.4838 9.96766C92.1295 9.70526 91.1926 10.9298 90.6257 12.3214C89.6178 14.7546 89.7044 14.6671 88.3108 17.9194C88.0589 18.5237 87.7124 18.8577 87.4053 18.7225C87.0668 18.5794 87.2794 17.8319 87.6888 16.8936C88.1376 15.9315 88.5549 15.2635 89.6808 13.6096L89.5548 13.4823C88.8777 14.365 87.8699 14.7308 88.3187 13.7527C88.6336 13.0609 88.7832 12.6792 89.1218 11.8999C89.5312 10.9537 88.7675 10.7072 87.5471 11.0173L87.61 10.9139C94.5704 7.74118 101.727 7.3754 108.294 9.06117C107.743 10.3732 106.641 13.1006 106.641 13.1006C106.53 13.3312 106.412 13.7845 106.412 13.7845C105.704 14.4445 105.105 14.7467 105.302 13.9753L106.672 10.5959H105.806L104.987 12.5599H103.932L104.751 10.5959C104.538 10.5959 103.853 10.5959 103.853 10.5959L102.641 13.5062C102.129 13.9594 101.153 14.4365 100.712 14.4445C100.342 14.4604 99.8536 14.3014 100.05 13.2756C100.153 12.7587 100.365 12.1544 100.72 11.3672C101.129 10.4686 101.373 10.1983 101.704 9.79273C102.554 8.76695 103.42 9.32357 102.704 10.2301C102.578 10.3812 102.428 10.5243 102.31 10.6595L102.924 11.2638C103.704 10.4607 103.853 9.04526 102.72 8.9737C101.483 8.89418 100.46 10.0392 99.9166 10.9855C99.5229 11.6852 99.1843 12.711 99.1371 13.4744C99.1371 13.4744 98.8379 13.7686 98.4363 14.0469C97.7356 14.5399 97.4679 14.2855 97.7907 13.4585L98.9875 10.5879H98.1135L97.9324 11.0332C97.8458 10.9378 97.8222 10.8901 97.7041 10.8105C97.1765 10.3255 95.9719 10.5561 95.3105 11.6693C95.3105 11.6693 95.0743 11.7329 94.8223 11.8045C94.6097 11.8761 94.4916 11.9079 94.4916 11.9079C94.5861 11.2081 94.3027 10.1267 93.4995 9.96766M91.8382 14.3888C91.8382 14.3888 91.6414 14.2457 91.7437 13.8481C91.9327 13.1563 93.4444 12.4725 93.4444 12.4725C93.3106 12.9257 93.035 13.5221 92.8696 13.8163C92.6728 14.1741 92.1925 14.6433 91.8382 14.3968" fill="#F4DB6C"/>
<path d="M116.365 9.9915C117.034 9.80861 117.341 9.02934 116.979 8.28983C116.947 8.88621 116.506 9.3156 116.199 9.41897C115.932 9.51439 115.656 9.65752 114.892 9.41897C115.191 9.84041 115.68 10.1744 116.365 9.98354" fill="#F4DB6C"/>
<path d="M123.522 20.9888C123.671 19.144 122.341 18.9213 121.868 19.5972L123.215 16.2893L115.318 16.2654C114.853 16.2654 114.058 16.2893 113.9 17.005C113.743 17.7286 114.003 18.4999 114.247 19.303C114.428 19.9073 114.184 21.0683 114.121 21.3227C113.806 22.5712 113.341 23.0085 113.247 23.096C113.026 23.3027 112.113 23.6367 112.294 22.2054C112.294 22.2372 112.396 21.617 112.507 21.2432C112.703 20.7025 113.05 19.5177 113.987 19.4461L113.916 19.2632C113.05 19.1837 112.365 19.7244 112.074 20.1538C111.31 21.2671 111.57 22.4837 111.57 22.4837C111.57 22.4837 109.593 23.9468 110.373 22.1815L111.68 19.0804H110.759L109.987 20.957C108.578 21.3784 108.924 20.0425 108.924 20.0425C109.089 19.0088 109.782 17.8399 110.759 17.9989C111.074 18.0466 111.192 18.1659 111.412 18.4283L111.672 18.2931C111.428 18.0387 110.94 17.6649 110.31 17.4741C108.034 16.7823 106.68 16.9175 105.452 17.1799C102.948 17.6968 101.027 18.9849 99.334 20.3049L99.8064 19.1758C98.5309 19.629 98.09 19.5893 98.09 19.5893C98.2947 18.7066 98.3341 17.1719 97.2239 16.9652C96.405 16.8062 95.8302 17.3707 95.6649 17.7842C95.3499 18.5555 95.4208 19.7244 96.964 19.9153C96.5546 21.4579 96.0901 22.2611 95.7672 22.6825C95.1452 23.4936 94.7437 23.6606 94.1532 23.5333C93.3815 23.3584 93.3422 22.6427 93.3579 21.6249C93.3737 20.8695 94.1138 17.2515 96.035 16.3927C96.9089 16.003 97.3656 16.1939 97.7278 16.4165C97.9168 16.5358 98.0427 16.7187 98.1451 16.8141L98.2553 16.6551C98.2553 16.6551 97.8931 15.852 96.9955 15.6929C96.7278 15.6532 96.1767 15.6929 95.7987 15.8201C94.5468 16.2098 93.3579 17.1401 92.6808 19.2553C92.5942 19.5654 92.2084 20.7661 92.5391 22.3008C92.7595 23.3425 93.413 23.5651 93.6965 23.7083C94.0114 23.8673 95.2633 24.09 96.405 22.9529C96.7908 22.5632 97.2475 21.9509 97.6805 21.0206C97.9325 20.4481 98.0427 19.9948 98.0427 19.9948C98.0427 19.9948 98.6096 19.9391 98.6726 19.8914C98.6726 19.8914 97.5939 22.5314 97.1609 23.4697H98.0191L98.9167 21.275C98.9167 21.275 99.8458 20.8934 99.5938 21.5613C99.3104 22.3247 99.4049 22.0225 99.1214 22.8097C98.7986 23.6844 99.83 23.6924 101.011 22.8654L100.767 23.4697H101.578L102.909 20.3367C102.909 20.3367 103.113 20.1936 103.46 20.0505C103.672 19.971 104.231 19.6847 104.003 20.2334L102.649 23.4618C102.94 23.4618 103.562 23.4618 103.562 23.4618L104.79 20.456C106.105 19.7244 105.79 20.3367 105.735 20.4719L104.893 22.4519C104.468 23.4061 104.924 23.7798 106.09 23.2312C106.286 23.1357 106.373 23.0801 106.373 23.0801C106.594 24.1377 108.53 22.7938 109.625 21.3466C109.625 21.3466 109.735 21.3466 109.845 21.3148L109.389 22.4519C109.05 23.7083 109.885 23.7719 111.625 22.7938C111.625 22.7938 111.853 23.4856 112.774 23.4856C113.373 23.5413 114.058 23.0006 114.31 22.6427C114.31 22.6427 114.64 22.6109 114.113 23.3584C113.609 24.0661 113.144 24.4001 112.806 25.068C112.026 26.6107 112.57 27.5251 112.924 27.5808C113.53 27.6762 114.215 27.4853 115.192 25.4417C115.192 25.4417 117.089 21.0842 117.68 19.6688C118.105 18.651 118.656 18.6987 118.829 18.802C119.388 19.1281 119.034 20.7502 119.034 20.7502C116.286 21.6806 116.483 23.8355 117.932 23.4061C118.435 23.255 119.53 22.436 120.002 20.7582C120.002 20.7582 120.459 20.6389 120.632 20.5832C120.632 20.5832 120.498 20.9967 120.183 21.7044C119.727 22.7461 120.018 23.43 120.782 23.4618C122.868 23.5651 123.475 21.2273 123.475 21.2273C123.506 21.2273 124.065 21.2432 124.459 20.8218L124.317 20.6787C124.057 21.0047 123.553 20.9967 123.53 20.9967M97.0428 19.5336C97.0428 19.5336 96.9562 19.5416 96.5704 19.4302C95.846 19.2235 95.7358 18.3647 96.0901 17.8478C96.405 17.4025 96.8302 17.5934 96.9562 17.7604C97.3262 18.2534 97.0428 19.5336 97.0428 19.5336ZM101.192 22.4201C101.09 22.5791 99.5072 23.6606 99.9324 22.6507C100.145 22.1338 100.192 22.0145 100.365 21.6011C100.932 20.2811 99.0821 20.9093 99.0821 20.9093C99.0506 20.9252 99.1529 20.7184 99.1529 20.7184C100.145 20.0266 102.121 18.9531 102.72 18.7066L101.184 22.428L101.192 22.4201ZM107.641 22.8495C107.483 22.9529 106.932 23.0483 107.381 22.0145C107.412 22.0145 106.507 22.0145 106.507 22.0145C106.389 22.2531 106.326 22.4598 106.31 22.7938C106.31 22.7938 106.066 22.9847 105.846 23.0483C105.743 23.0801 105.397 23.1516 105.672 22.5553L106.641 20.289C107.05 19.3507 106.349 19.3666 105.72 19.6131C105.279 19.7801 104.979 19.9869 104.979 19.9869C104.979 19.9869 105.342 19.2792 104.672 19.2871C104.263 19.2951 103.554 19.4541 103.035 19.8755L103.665 18.3965C103.665 18.3965 105.948 17.3151 110.026 17.7604C109.334 17.7842 108.617 18.1102 108.16 19.1917C107.916 19.7642 107.979 20.7661 108.397 21.1637C108.664 21.4102 109.192 21.3864 109.192 21.3864C109.192 21.3864 108.412 22.3644 107.633 22.8495M118.302 22.4598C118.121 22.7779 117.75 23.263 117.38 23.1437C117.128 23.0642 117.128 22.7223 117.128 22.7063C117.168 21.7919 118.939 21.0524 118.939 21.0524C118.664 21.8555 118.428 22.2372 118.302 22.4598ZM119.979 20.4799C120.081 19.4223 119.506 18.4999 118.806 18.476C117.388 18.4442 116.688 19.7006 116.136 21.0285C115.184 23.2868 113.735 26.7856 113.735 26.7856C113.451 27.4217 113.113 27.4615 112.955 27.374C112.837 27.3104 112.727 27.0957 112.829 26.5709C112.916 26.1097 113.192 25.235 114.412 23.5174C114.806 22.9688 115.144 22.3644 114.585 22.2929C114.585 22.2929 115.081 21.4977 115.113 20.6468C115.144 19.8119 114.861 19.1599 114.711 18.8259C114.144 17.5139 113.948 17.0765 115.388 17.0765C116.806 17.0765 122.144 17.0765 122.144 17.0765C122.128 17.1322 120.774 20.2334 120.774 20.2334C120.459 20.3129 119.979 20.464 119.979 20.464M120.884 23.1596C120.412 23.1119 120.632 22.4757 120.735 22.269C121.026 21.609 121.372 20.7741 121.75 19.9232C121.593 20.6707 122.27 21.0285 122.672 21.116C122.672 21.116 121.805 23.2471 120.884 23.1596ZM122.742 20.8615C122.742 20.8615 121.939 20.6628 121.987 20.0107C122.026 19.6052 122.396 19.5098 122.561 19.6449C122.971 19.9789 122.735 20.8615 122.735 20.8615" fill="#F4DB6C"/>
<path d="M119.223 12.3055C119.908 12.3055 120.459 11.7568 120.459 11.0809C120.459 10.405 119.908 9.85635 119.223 9.85635C118.53 9.85635 117.979 10.405 117.979 11.0809C117.979 11.7568 118.538 12.3055 119.223 12.3055ZM119.223 9.99153C119.821 9.99153 120.309 10.4845 120.309 11.0809C120.309 11.6773 119.821 12.1703 119.223 12.1703C118.624 12.1703 118.12 11.6853 118.12 11.0809C118.12 10.4766 118.616 9.99153 119.223 9.99153Z" fill="#F4DB6C"/>
<path d="M118.931 11.2002H119.23L119.443 11.8284H119.774C119.774 11.8284 119.545 11.2002 119.553 11.2002C119.608 11.1843 119.813 11.0968 119.813 10.8105C119.813 10.4766 119.593 10.3334 119.364 10.3334H118.632V11.8363H118.931V11.2081V11.2002ZM118.931 10.572H119.301C119.301 10.572 119.498 10.5561 119.498 10.7549C119.498 10.9537 119.27 10.9378 119.27 10.9378H118.923V10.572H118.931Z" fill="#F4DB6C"/>
<path d="M57.124 35.3575C57.4547 35.3814 57.7854 35.3019 58.0925 35.119C58.8956 34.6339 59.1554 33.5764 58.6673 32.7494C58.3681 32.2325 57.8405 31.9303 57.2973 31.8985C56.9666 31.8747 56.6359 31.9542 56.3288 32.1371C55.5257 32.6221 55.2659 33.6797 55.754 34.5067C56.0611 35.0236 56.5808 35.3178 57.124 35.3575Z" fill="white"/>
<path d="M128.498 36.8922C126.64 36.8922 125.129 38.3792 125.129 40.224C125.129 42.0688 126.632 43.5558 128.498 43.5558C130.365 43.5558 131.861 42.0608 131.861 40.224C131.861 38.3871 130.357 36.8922 128.498 36.8922ZM128.498 43.0548C126.916 43.0548 125.64 41.7905 125.64 40.224C125.64 38.6575 126.924 37.3932 128.498 37.3932C130.073 37.3932 131.357 38.6575 131.357 40.224C131.357 41.7905 130.073 43.0548 128.498 43.0548Z" fill="white"/>
<path d="M129.845 39.5879C129.845 38.8245 129.349 38.4905 128.829 38.4905H127.144V41.9495H127.837V40.4944H128.538L129.002 41.9495C129.002 41.9495 129.719 41.9495 129.782 41.9495C129.782 41.9495 129.254 40.5023 129.27 40.4944C129.396 40.4626 129.845 40.2558 129.845 39.5879ZM128.632 39.9219H127.837V39.071H128.695C128.695 39.071 129.144 39.0392 129.16 39.4925C129.175 39.9378 128.632 39.9219 128.632 39.9219Z" fill="white"/>
<path d="M119.215 37.5204C119.215 37.5204 118.83 38.737 118.711 39.0631C118.349 38.6416 116.971 37.4329 113.412 38.0293C109.735 38.8722 106.562 41.9893 103.704 47.5714C103.185 48.5892 102.814 49.4162 102.507 50.3943C100.83 52.7003 97.9565 55.5868 96.6573 56.3819C96.429 56.5251 96.1691 56.6125 95.9802 56.6205C95.7676 56.6284 95.5235 56.4456 95.4763 56.1195C95.4448 55.9366 95.3818 55.2607 95.2794 54.227C95.0038 50.4181 94.3818 48.136 93.2952 47.2533C92.8622 46.9035 92.2008 46.7444 91.2087 46.6093C91.0434 46.5854 90.7206 46.5695 90.7206 46.5695C93.0275 43.7864 97.2085 40.3592 99.3895 39.1823C99.4603 39.1426 99.6887 39.0312 99.7595 38.9915C99.602 39.1585 99.4682 39.4288 99.4603 39.6356C99.4367 40.4705 99.9249 41.2339 100.689 41.536C101.169 41.7269 101.704 41.7189 102.185 41.5042C102.665 41.2895 103.035 40.8999 103.232 40.4069C103.633 39.3891 103.145 38.2281 102.145 37.8305C102.027 37.7828 101.909 37.751 101.799 37.7272L101.752 37.7113C101.61 37.6874 101.46 37.6715 101.303 37.6715C98.232 37.6715 93.1929 42.3074 90.7521 44.9712C91.8229 42.2517 93.2638 38.8484 93.5315 38.2917C93.6417 38.0532 93.7755 37.7987 93.8385 37.7033C93.9251 37.584 94.0905 37.5045 94.0905 37.5045H89.0907C89.0907 37.5045 89.1616 37.5999 89.1695 37.7669C89.1773 37.9339 89.0671 38.3713 88.9175 38.8643C88.7443 39.4527 87.2483 43.349 84.4689 50.4499C81.7761 53.074 78.2959 56.0082 77.5479 56.533C76.8944 56.9863 76.5795 57.1135 76.3197 57.193C76.2016 57.2248 76.0205 57.2248 75.9496 57.1692C75.8551 57.0896 75.6425 56.8909 75.7921 56.1513C75.8551 55.8492 76.0283 55.2846 76.2567 54.6564C78.4298 48.9232 81.7289 40.4148 82.0438 39.6753C82.154 39.4129 82.2643 39.1744 82.3509 38.9676V38.9517C82.4454 38.7609 82.5162 38.6019 82.5713 38.4667C82.658 38.252 82.839 37.8862 82.9414 37.751C83.0674 37.584 83.2012 37.5045 83.2012 37.5045H78.2408V37.6397C78.2723 37.9737 78.2093 38.3872 78.0676 38.8643C77.9259 39.3334 76.9259 41.9654 75.0914 46.6808H69.1546C69.5798 45.5835 69.9892 44.5418 70.3593 43.6035C71.2412 41.3532 71.7687 39.9616 71.8868 39.6753C72.2017 38.8722 72.438 38.2202 72.6584 37.9021C72.8001 37.6874 73.0049 37.5045 73.0049 37.5045H68.0051C68.0051 37.5045 68.076 37.592 68.0917 37.8385C68.1074 38.0929 68.0208 38.411 67.887 38.8643C67.7138 39.4606 66.2493 43.2775 63.4069 50.5374C59.1157 55.9923 52.9428 59.5706 49.9272 58.354C48.754 57.8848 48.2186 56.6682 48.3761 54.8473V54.8075C48.3839 54.7121 48.4076 54.4894 48.4233 54.3702C48.4942 54.3304 48.5887 54.2827 48.7068 54.2191C56.604 50.0285 59.9818 46.8558 61.4148 44.9394C62.7612 43.2854 63.3596 41.1544 62.8715 39.7549C62.2573 38.0134 59.9818 36.9797 57.5725 37.3534C52.9428 38.085 48.9981 41.218 46.4785 46.164C45.077 48.9312 44.4471 52.3504 44.7936 55.3244C43.3054 56.1593 39.8017 58.1154 38.1325 58.1949C37.7624 58.2029 37.3451 58.179 37.1797 57.9325C36.7782 57.2328 37.3136 54.3304 42.3685 44.0965C42.4787 43.8659 42.5889 43.6353 42.6992 43.4206C42.9354 42.9356 43.1795 42.4266 43.455 41.9098C43.6912 41.4645 43.9196 40.9715 44.1479 40.4944C44.4156 39.9218 44.6912 39.3334 44.9589 38.8484C45.2581 38.3235 45.4471 37.926 45.5494 37.7908C45.6597 37.6317 45.8486 37.4966 45.8486 37.4966H40.3528C40.3528 37.4966 40.4079 37.592 40.4237 37.8305C40.4316 38.1009 40.3449 38.3474 40.2111 38.7211C39.7387 40.057 38.9986 41.8303 38.8332 42.1642C38.6679 42.4743 38.3844 43.0628 38.0301 43.8102L38.0143 43.842C37.4002 45.1302 36.5656 46.8955 35.8806 48.1042C33.6602 52.0482 30.6997 55.4198 27.755 57.3441C26.8731 57.9246 25.9519 58.1472 25.1724 57.9802C24.4953 57.8292 24.0544 57.3123 24.0229 56.6284C24.0229 56.6125 24.0229 56.5887 24.0229 56.5648V56.5489C24.0229 56.4137 24.0307 56.2786 24.0622 56.1513C24.5189 56.6523 25.1724 56.875 25.8338 56.7557C26.3456 56.6603 26.7865 56.366 27.0857 55.9287C27.3849 55.4913 27.4951 54.9665 27.4007 54.4417C27.2589 53.6465 26.6605 53.0184 25.8889 52.8514C25.5346 52.7559 24.2827 52.5731 23.1095 54.1555C22.582 54.8632 22.3458 55.9128 22.4718 56.9704C22.4718 56.9942 22.4718 57.0181 22.4796 57.0419C22.4954 57.1692 22.5505 57.4475 22.5899 57.6065C22.4403 57.7099 21.4482 58.1154 20.8025 58.2267C20.2041 58.2904 19.8262 57.9643 19.7317 57.7258C19.4955 57.0896 19.4325 55.873 20.0152 53.9169C20.9521 50.8078 27.4322 34.7453 28.1644 32.9243L28.1802 32.8925C28.2274 32.7891 28.3219 32.5665 28.4242 32.2882C28.5502 31.9622 28.6132 31.7872 28.7549 31.485C28.7628 31.485 29.251 31.7952 29.251 31.7952C31.3532 29.5289 33.6996 25.7598 34.6759 21.7919C34.9987 20.3367 36.3451 13.0291 31.2194 11.8284C28.1093 11.1445 24.0307 12.8303 18.7396 17.0049C16.6059 18.7941 12.173 22.5075 7.97636 28.853C3.34665 35.8585 -0.0783837 45.3608 0.000352785 50.9668C-0.0705101 55.6583 1.01605 57.8848 2.28371 59.2525C2.83487 59.8489 3.52775 59.9523 3.92931 59.9602C5.04736 59.9602 6.18904 59.2764 6.79531 58.9583C9.85029 57.368 13.047 53.8135 16.1571 50.1557L16.2122 50.0921C16.5586 49.6866 16.9051 49.281 17.2515 48.8755C16.6374 50.9032 15.9839 53.1456 15.8106 54.7359C15.6059 56.5807 15.8264 57.8689 16.472 58.6641C17.1255 59.4672 18.1806 60.0079 18.9759 60C19.3774 60 20.0939 59.9205 20.7632 59.7137C21.9363 59.3479 23.0544 58.7277 23.0938 58.7038C23.6134 59.3241 24.448 59.666 25.448 59.6899H25.5267C28.5423 59.6899 31.7784 55.881 34.8413 51.6745C33.8413 54.8075 33.7783 57.0578 34.6366 58.3699C35.1562 59.165 36.0144 59.6024 37.1876 59.674C39.841 59.8728 44.5495 56.859 44.9825 56.5092C45.3447 57.8053 46.0218 58.6641 46.5494 59.0378C47.2108 59.507 48.2029 59.9125 49.8799 59.9761C50.6909 60.0079 51.5964 59.9205 52.5885 59.6819C55.856 58.9026 59.1945 56.7557 62.3754 53.1615L61.2416 56.0559C60.8401 57.0817 60.5094 57.9325 60.2732 58.5289C60.1157 58.9344 60.0606 59.0458 59.911 59.2446C59.7614 59.4434 59.5015 59.6263 59.5015 59.6263H64.6824C64.6824 59.6263 64.5485 59.5388 64.5013 59.3638C64.4541 59.2048 64.4541 59.0219 64.5958 58.6243C65.2178 56.8352 66.5642 53.3126 68.7137 47.7941H74.6504C74.052 49.3447 73.4379 50.9032 72.8552 52.3902L72.8238 52.4697C72.6427 52.9388 71.8553 55.1176 71.7451 55.6822C71.5482 56.7398 71.4616 58.187 72.1545 59.0219C72.5088 59.4513 73.0285 59.666 73.7056 59.666H73.7371C75.1859 59.6501 76.6661 58.6323 77.6424 57.9564L77.918 57.7655C78.603 57.2646 81.2092 55.1812 83.5949 52.6923C83.1304 53.8771 82.6737 55.0063 82.2879 55.9764L82.1855 56.2388C81.6974 57.4872 81.3116 58.4653 81.1068 58.9981C80.9809 59.34 80.6344 59.6263 80.6344 59.6263C82.2092 59.6263 85.5555 59.6263 85.5869 59.6263C85.5869 59.6263 85.3665 59.3638 85.461 59.0935C85.461 59.0935 88.7049 50.3784 89.6655 47.9213C91.2796 48.47 91.3505 50.6885 91.4135 53.0343C91.4371 53.893 91.4764 54.887 91.5945 55.7697C91.9331 58.3142 92.6575 59.4831 94.0826 59.666C94.7283 59.7137 95.3188 59.4354 95.6416 59.2048C97.24 58.0438 101.641 53.3205 101.917 52.8037C101.61 55.0699 102.137 57.5031 103.177 58.7834C103.822 59.5785 104.46 59.9602 105.413 59.9602C107.917 59.9602 111.105 57.4634 113.389 54.3542C113.113 55.2687 112.909 56.2706 112.885 56.5728C112.798 57.5111 113.09 58.3619 113.538 58.9901C113.94 59.5467 114.593 59.9443 115.349 59.9523C115.877 59.9602 116.782 59.8648 117.735 59.3638C119.026 58.6879 120.27 57.0658 120.837 56.2388L120.963 56.048H120.735C120.735 56.048 120.467 56.048 120.247 56.0162H120.192L120.152 56.048C120.074 56.1275 119.971 56.2388 119.861 56.3581C119.357 56.8909 118.601 57.7019 118.097 57.9246C117.467 58.2108 116.94 58.1075 116.806 57.853C116.302 56.8749 116.869 55.3005 117.664 53.1138C117.893 52.4935 122.884 38.7052 122.884 38.7052C123.066 38.2361 123.168 37.9419 123.239 37.7987C123.317 37.6397 123.53 37.4966 123.53 37.4966H119.215V37.5204ZM56.5017 39.1744C57.1788 38.7291 57.9268 38.4746 58.5646 38.4746C58.7457 38.4746 58.911 38.4905 59.0606 38.5303C59.3756 38.6098 59.6039 38.7847 59.7299 39.0153C60.5802 40.9238 58.8087 45.17 54.4703 48.7006C51.6436 50.9986 49.7618 52.3425 48.4154 53.0343C49.3209 49.4083 52.557 41.7826 56.5095 39.1744M2.77975 56.2706C2.51205 54.1316 2.77188 52.3902 2.85849 51.754C3.17343 49.5593 3.84269 47.0307 4.84265 44.2237C6.79531 38.9517 8.23619 35.8426 10.5747 31.9224C14.8107 24.8056 19.5113 17.7285 25.6685 14.2059C27.3219 13.2358 30.3139 11.8681 32.1642 13.4267C34.4712 15.3748 34.2035 19.4461 33.1878 22.6507C32.4319 25.0282 30.6131 28.5031 29.8336 29.0836L29.7628 28.9643C29.3612 28.9803 24.9834 28.9564 24.9834 28.9564C24.9834 28.9564 25.0464 29.179 25.0464 29.4812C25.0464 29.839 24.9283 30.2048 24.7945 30.4672C24.7787 30.499 19.8262 42.2437 19.1491 43.842C18.409 45.8856 9.26764 57.6304 4.80328 58.2745C3.70097 58.4255 2.96872 57.6701 2.77975 56.2706ZM118.026 40.884C117.932 41.1305 117.822 41.4486 117.68 41.8303C117.326 42.7686 116.861 44.0329 116.389 45.2972C115.782 46.9194 115.145 48.5892 114.759 49.5832C114.546 50.1239 114.42 50.4579 114.405 50.5056C112.271 55.2687 109.058 57.4236 106.822 57.4475C106.232 57.4316 104.846 57.0022 105.066 54.6485C105.208 52.7719 106.129 50.2193 107.806 47.0625C110.586 42.1801 112.727 40.3035 114.034 39.5879C114.625 39.2459 115.223 39.1346 115.751 39.1346C116.389 39.1346 116.916 39.2937 117.2 39.405C117.814 39.6356 118.215 39.9536 118.31 40.1445C118.263 40.2479 118.176 40.4864 118.026 40.884Z" fill="white"/>
<path d="M62.7924 35.3496C63.7451 35.3496 64.5088 34.5783 64.5088 33.632C64.5088 32.6858 63.7372 31.9145 62.7924 31.9145C61.8475 31.9145 61.0759 32.6778 61.0759 33.632C61.0759 34.5862 61.8475 35.3496 62.7924 35.3496Z" fill="white"/>
</g>
<defs>
<clipPath id="clip0_1101_749">
<rect width="131.868" height="59.1132" fill="white" transform="translate(0 0.88678)"/>
</clipPath>
</defs>
</svg>

