<svg viewBox="0 0 202 87" fill="none" xmlns="http://www.w3.org/2000/svg">
<g clip-path="url(#clip0_1101_634)">
<path d="M21.3265 0H202V33.3707C202 45.0605 192.446 54.5476 180.674 54.5476H0V21.1769C0 9.48714 9.55415 0 21.3265 0Z" fill="white"/>
<path d="M21.3265 32.4524H202V65.8231C202 77.5129 192.446 87 180.674 87H0V53.6293C0 41.9395 9.55415 32.4524 21.3265 32.4524Z" fill="#ED1C24"/>
<path d="M24.0244 46.6348C22.2096 48.4369 21.2083 50.8329 21.2083 53.3669V65.8507L22.0705 65.7195C24.1913 65.4019 25.8324 63.655 26.0549 61.4938L26.0827 53.3669C26.0827 52.124 26.5764 50.9502 27.4734 50.0595C28.3704 49.1688 29.5525 48.6786 30.8041 48.6786H52.965V43.8383H30.8041C28.2452 43.8383 25.8393 44.8326 24.0244 46.6348Z" fill="white"/>
<path d="M48.0976 58.0621V65.7817C48.0976 67.0245 47.5969 68.1983 46.6999 69.089C45.8029 69.9798 44.6208 70.47 43.3692 70.47H21.2083V75.3102H43.3692C45.9281 75.3102 48.334 74.3159 50.1488 72.5138C51.9637 70.7117 52.965 68.3226 52.965 65.7817V53.2979L52.1028 53.429C49.8151 53.7743 48.0906 55.7698 48.0906 58.0621" fill="white"/>
<path d="M43.8003 65.8645V53.5464H40.1775L37.0901 57.5029L33.9958 53.5464H30.373V65.8645H34.1974V59.6088L37.0901 63.0336L39.9758 59.6088V65.8645H43.8003Z" fill="white"/>
<path d="M108.711 69.3376H113.892V54.3474H121.13V49.8109H108.711V69.3376Z" fill="white"/>
<path d="M136.748 57.0955H129.057V49.8109H123.884V69.3376H129.057V61.6871H136.748V69.3376H141.928V49.8109H136.748V57.0955Z" fill="white"/>
<path d="M165.925 54.3405H171.975V69.3376H177.148V54.3405H183.225V49.8109H165.925V54.3405Z" fill="white"/>
<path d="M150.912 60.824V49.8109H145.732V69.3376H150.064L158.304 58.2071V69.3376H163.484V49.8109H159.013L150.912 60.824Z" fill="white"/>
<path d="M73.7908 56.5224L68.5548 49.8109H63.444V69.3376H68.6244V57.7307L73.7908 63.8621L78.9643 57.7307V69.3376H84.1377V49.8109H79.0338L73.7908 56.5224Z" fill="white"/>
<path d="M94.0187 49.8109L86.0569 69.3376H91.272L92.3498 66.6033H100.409L101.487 69.3376H106.785L98.8235 49.8109H94.0395H94.0187ZM93.963 62.4743L96.3689 56.3498L98.7749 62.4743H93.963Z" fill="white"/>
<path d="M20.6867 22.2195V20.1965C21.6602 20.9698 22.891 21.3634 24.3513 21.3634C25.5055 21.3634 26.4999 21.0043 27.3274 20.2724C28.1757 19.5405 28.6624 18.6084 28.8224 17.4622H23.4264V15.6531H28.7111C28.5095 14.5967 28.0227 13.7198 27.2161 13.0569C26.4234 12.3941 25.4847 12.0557 24.3999 12.0557C23.1344 12.0557 21.9801 12.3941 20.951 13.0569V11.0684C21.9801 10.4953 23.1135 10.2053 24.3652 10.2053C26.2426 10.2053 27.8141 10.8336 29.0727 12.0903C30.3382 13.3262 30.971 14.866 30.971 16.7165C30.971 18.5669 30.3382 20.086 29.0588 21.3426C27.7933 22.5993 26.2218 23.2276 24.3513 23.2276C22.9258 23.2276 21.695 22.9031 20.6867 22.2403V22.2195Z" fill="#656668"/>
<path d="M33.662 22.9722V10.4331H35.6438V15.5564L40.8242 10.4331H43.3692L37.5212 16.171L44.3079 22.9791H41.603L35.6507 16.9581V22.9791H33.669L33.662 22.9722Z" fill="#656668"/>
<path d="M46.2827 21.3771C45.0171 20.1412 44.3844 18.5807 44.3844 16.7026C44.3844 14.8245 45.0171 13.264 46.2827 12.0419C47.5482 10.806 49.1336 10.1983 51.0459 10.1983C52.3462 10.1983 53.4796 10.4883 54.4739 11.0407V13.0293C53.4448 12.3664 52.3114 12.0419 51.0598 12.0419C49.7386 12.0419 48.626 12.4907 47.736 13.3676C46.8459 14.2445 46.4148 15.3562 46.4148 16.7026C46.4148 18.049 46.8668 19.1745 47.7499 20.0514C48.6538 20.9283 49.7733 21.3564 51.1223 21.3564C52.5478 21.3564 53.7577 20.9836 54.7312 20.2102V22.1988C53.6812 22.8617 52.4574 23.2 51.0319 23.2C49.1336 23.2 47.5482 22.5924 46.2688 21.3702L46.2827 21.3771Z" fill="#656668"/>
<path d="M57.1789 22.9722V10.4331H59.1606V15.5564L64.341 10.4331H66.886L61.0381 16.171L67.8247 22.9791H65.1198L59.1676 16.9581V22.9791H57.1858L57.1789 22.9722Z" fill="#656668"/>
<path d="M68.4644 21.1493C68.6452 21.2045 68.8608 21.2184 69.132 21.2184C70.0151 21.2184 70.5922 20.7143 70.8982 19.5681C71.2389 18.4219 71.3502 17.0203 71.4058 14.7279L71.4614 10.4262H79.8682V22.9722H77.8865V12.2353H73.3736L73.318 14.9212C73.2624 17.7314 73.026 19.506 72.4349 20.9629C71.8369 22.3991 70.8078 23.0205 69.2432 23.0205C68.9025 23.0205 68.6452 22.986 68.4644 22.9307V21.1355V21.1493Z" fill="#656668"/>
<path d="M97.4885 12.0764C98.6288 13.3331 99.206 14.8729 99.206 16.7026C99.206 18.5324 98.6288 20.0721 97.4885 21.3288C96.3481 22.5855 94.9087 23.2138 93.1912 23.2138C91.5849 23.2138 90.229 22.6752 89.1303 21.6188C88.0317 20.5417 87.378 19.1814 87.1972 17.5312H84.993V22.979H83.0112V10.4331H84.993V15.7221H87.2111C87.4128 14.1271 88.0803 12.8014 89.179 11.7588C90.2777 10.7162 91.6127 10.1983 93.1842 10.1983C94.9017 10.1983 96.3411 10.8267 97.4815 12.0833L97.4885 12.0764ZM96.0282 20.086C96.7862 19.2229 97.1686 18.0974 97.1686 16.6957C97.1686 15.294 96.7931 14.1686 96.0282 13.3262C95.2912 12.4631 94.3316 12.035 93.1981 12.035C92.0647 12.035 91.0843 12.4631 90.3263 13.3262C89.5893 14.1686 89.2068 15.294 89.2068 16.6957C89.2068 18.0974 89.5823 19.2229 90.3263 20.086C91.0843 20.9283 92.0438 21.3564 93.1981 21.3564C94.3524 21.3564 95.2912 20.9283 96.0282 20.086Z" fill="#656668"/>
<path d="M100.937 22.1367V20.2033C102.036 20.9007 103.684 21.3702 105.068 21.3702C107.216 21.3702 108.531 20.5071 108.531 19.1676C108.531 18.0007 107.3 17.2136 105.443 17.2136H103.872V15.4045H105.673C107.209 15.4045 108.093 14.7762 108.093 13.7198C108.093 12.6633 107.029 12.0557 105.367 12.0557C104.011 12.0557 102.711 12.3595 101.466 12.9671V11.1581C102.697 10.5298 104.032 10.2052 105.471 10.2052C106.91 10.2052 107.947 10.509 108.795 11.1374C109.643 11.7657 110.06 12.5874 110.06 13.6093C110.06 14.2928 109.859 14.8452 109.449 15.294C109.031 15.7428 108.579 16.0467 108.093 16.2055C108.76 16.4057 109.337 16.7786 109.824 17.3171C110.311 17.835 110.561 18.5186 110.561 19.3264C110.561 20.4588 110.088 21.384 109.15 22.1229C108.211 22.8548 106.945 23.2138 105.339 23.2138C103.552 23.2138 102.092 22.8548 100.917 22.1367H100.937Z" fill="#656668"/>
<path d="M113.12 22.9722V10.4331H115.102V19.6441L122.048 10.4331H123.78V22.9791H121.798V13.7336L114.817 22.9791H113.12V22.9722Z" fill="#656668"/>
<path d="M126.93 22.9722V10.4331H132.666C134.926 10.4331 136.387 11.5793 136.387 13.5126C136.387 14.8038 135.663 15.736 134.711 16.095C136.247 16.385 137.402 17.6002 137.402 19.4438C137.402 20.5002 137.026 21.3633 136.247 22.0055C135.49 22.6476 134.46 22.9722 133.146 22.9722H126.937H126.93ZM128.911 15.4805H132.326C133.64 15.4805 134.419 14.9074 134.419 13.851C134.419 12.7945 133.64 12.2352 132.326 12.2352H128.911V15.4805ZM128.911 21.1631H132.771C134.307 21.1631 135.246 20.4312 135.246 19.1538C135.246 17.8764 134.342 17.2205 132.771 17.2205H128.911V21.1631Z" fill="#656668"/>
<path d="M139.94 22.9722V10.4331H141.922V15.3769H148.507V10.4331H150.495V22.9791H148.507V17.1929H141.922V22.9791H139.94V22.9722Z" fill="#656668"/>
<path d="M159.632 23.2069C157.776 23.2069 156.239 22.5786 155.015 21.3426C153.805 20.086 153.193 18.5462 153.193 16.7026C153.193 14.8591 153.805 13.3124 155.015 12.0764C156.246 10.8198 157.776 10.1914 159.632 10.1914C161.489 10.1914 163.025 10.8198 164.249 12.0764C165.48 13.3124 166.092 14.8522 166.092 16.7026C166.092 18.5531 165.48 20.0929 164.249 21.3426C163.025 22.5786 161.489 23.2069 159.632 23.2069ZM159.632 21.3633C160.877 21.3633 161.927 20.9145 162.775 20.0376C163.623 19.14 164.055 18.0283 164.055 16.7026C164.055 15.3769 163.623 14.2652 162.775 13.3883C161.927 12.4907 160.877 12.0419 159.632 12.0419C158.387 12.0419 157.337 12.4907 156.489 13.3883C155.641 14.2652 155.224 15.3769 155.224 16.7026C155.224 18.0283 155.641 19.14 156.489 20.0376C157.337 20.9145 158.381 21.3633 159.632 21.3633Z" fill="#656668"/>
<path d="M173.477 22.9722V10.4331H179.213C181.466 10.4331 182.933 11.5793 182.933 13.5126C182.933 14.8038 182.21 15.736 181.258 16.095C182.794 16.385 183.949 17.6002 183.949 19.4438C183.949 20.5002 183.566 21.3633 182.794 22.0055C182.036 22.6476 181.007 22.9722 179.693 22.9722H173.484H173.477ZM175.465 15.4805H178.88C180.194 15.4805 180.973 14.9074 180.973 13.851C180.973 12.7945 180.194 12.2352 178.88 12.2352H175.465V15.4805ZM175.465 21.1631H179.325C180.861 21.1631 181.8 20.4312 181.8 19.1538C181.8 17.8764 180.896 17.2205 179.325 17.2205H175.465V21.1631Z" fill="#656668"/>
</g>
<defs>
<clipPath id="clip0_1101_634">
<rect width="202" height="87" fill="white"/>
</clipPath>
</defs>
</svg>
