<svg width="18" height="18" viewBox="0 0 18 18" fill="none" xmlns="http://www.w3.org/2000/svg">
<path fill-rule="evenodd" clip-rule="evenodd" d="M1.5 5.25C1.5 3.59315 2.84315 2.25 4.5 2.25H13.5C15.1569 2.25 16.5 3.59315 16.5 5.25V12.75C16.5 14.4069 15.1569 15.75 13.5 15.75H4.5C2.84315 15.75 1.5 14.4069 1.5 12.75V5.25ZM10.6875 10.5C10.6875 10.1893 10.9393 9.9375 11.25 9.9375H13.5C13.8107 9.9375 14.0625 10.1893 14.0625 10.5C14.0625 10.8107 13.8107 11.0625 13.5 11.0625H11.25C10.9393 11.0625 10.6875 10.8107 10.6875 10.5ZM10.6875 12.75C10.6875 12.4393 10.9393 12.1875 11.25 12.1875H13.5C13.8107 12.1875 14.0625 12.4393 14.0625 12.75C14.0625 13.0607 13.8107 13.3125 13.5 13.3125H11.25C10.9393 13.3125 10.6875 13.0607 10.6875 12.75ZM6 5.25H7.5C8.32843 5.25 9 5.92157 9 6.75C9 7.57843 8.32843 8.25 7.5 8.25H6C5.17157 8.25 4.5 7.57843 4.5 6.75C4.5 5.92157 5.17157 5.25 6 5.25Z" fill="#D30E14"/>
</svg>
