<svg width="36" height="36" viewBox="0 0 36 36" fill="none" xmlns="http://www.w3.org/2000/svg">
<path d="M23.7143 14.1575C22.881 13.5622 20.2143 12.3004 17.6429 12.0146C15.0714 11.7289 10.1429 15.7051 8 17.7289C9.42857 20.8718 15.1429 22.8479 17.6429 23.4432L24.0714 21.3003L27.6429 17.7289L23.7143 14.1575Z" fill="#D30E14"/>
<path d="M8 17.7289C11.046 13.4168 19.3103 7.37981 28 17.7289" stroke="#D30E14" stroke-width="1.71394" stroke-linecap="round"/>
<path d="M8 17.7291C11.046 22.0412 19.3103 28.0782 28 17.7291" stroke="#D30E14" stroke-width="1.71394" stroke-linecap="round"/>
<path d="M21.3353 18.0863C21.3353 19.6552 19.9213 21.0649 17.9996 21.0649C16.0778 21.0649 14.6639 19.6552 14.6639 18.0863C14.6639 16.5174 16.0778 15.1077 17.9996 15.1077C19.9213 15.1077 21.3353 16.5174 21.3353 18.0863Z" fill="#D30E14" stroke="white" stroke-width="1.9"/>
</svg>
