<svg width="17" height="16" viewBox="0 0 17 16" fill="none" xmlns="http://www.w3.org/2000/svg">
<path d="M16.4995 11.9791V14.3877C16.5004 14.6113 16.4545 14.8327 16.3648 15.0375C16.275 15.2424 16.1434 15.4263 15.9783 15.5775C15.8132 15.7286 15.6183 15.8437 15.406 15.9154C15.1938 15.987 14.9689 16.0136 14.7457 15.9935C12.2702 15.725 9.89235 14.8808 7.80312 13.5286C5.85937 12.2959 4.21141 10.6512 2.97627 8.71134C1.61669 6.61679 0.770593 4.23206 0.50653 1.75036C0.486426 1.52834 0.512865 1.30457 0.584162 1.0933C0.655459 0.882034 0.770052 0.687898 0.920646 0.523253C1.07124 0.358607 1.25454 0.22706 1.45886 0.136987C1.66319 0.0469136 1.88407 0.000287778 2.10744 7.78413e-05H4.52086C4.91128 -0.00375708 5.28977 0.134222 5.5858 0.388297C5.88182 0.642373 6.07517 0.995207 6.12981 1.38103C6.23168 2.15185 6.42059 2.9087 6.69295 3.63713C6.80118 3.9245 6.82461 4.23682 6.76045 4.53707C6.69629 4.83732 6.54723 5.11292 6.33093 5.33121L5.30925 6.35087C6.45446 8.36092 8.12206 10.0252 10.1361 11.1682L11.1578 10.1485C11.3765 9.93264 11.6527 9.78387 11.9535 9.71984C12.2544 9.6558 12.5673 9.67918 12.8552 9.78721C13.5851 10.059 14.3435 10.2476 15.1158 10.3492C15.5066 10.4042 15.8635 10.6007 16.1186 10.9012C16.3737 11.2017 16.5093 11.5853 16.4995 11.9791Z" fill="#D30E14"/>
</svg>
