<svg width="25" height="25" viewBox="0 0 25 25" fill="none" xmlns="http://www.w3.org/2000/svg">
<path fill-rule="evenodd" clip-rule="evenodd" d="M18.8897 5.82031H20.3271C21.4317 5.82031 22.3271 6.71574 22.3271 7.82031V8.82031C22.3271 9.92488 21.4317 10.8203 20.3271 10.8203H4.32715C3.22258 10.8203 2.32715 9.92488 2.32715 8.82031V7.82031C2.32715 6.71574 3.22258 5.82031 4.32715 5.82031H5.76462C5.64358 5.51038 5.57715 5.1731 5.57715 4.82031C5.57715 3.30153 6.80837 2.07031 8.32715 2.07031C10.0066 2.07031 11.4825 2.94194 12.3271 4.2575C13.1718 2.94193 14.6477 2.07031 16.3271 2.07031C17.8459 2.07031 19.0771 3.30153 19.0771 4.82031C19.0771 5.1731 19.0107 5.51038 18.8897 5.82031ZM7.57703 5.82031H11.4204C10.9986 4.51468 9.77317 3.57031 8.32715 3.57031C7.63679 3.57031 7.07715 4.12996 7.07715 4.82031C7.07715 5.22921 7.27348 5.59226 7.57703 5.82031ZM17.0773 5.82031C17.3808 5.59226 17.5771 5.22921 17.5771 4.82031C17.5771 4.12996 17.0175 3.57031 16.3271 3.57031C14.8811 3.57031 13.6557 4.51468 13.2339 5.82031H17.0773ZM20.3271 12.3203H4.32715V20.8203C4.32715 21.9249 5.22258 22.8203 6.32715 22.8203H18.3271C19.4317 22.8203 20.3271 21.9249 20.3271 20.8203V12.3203Z" fill="#D30E14"/>
</svg>
