<svg preserveAspectRatio="none" width="1440" height="780" viewBox="0 0 1440 780" fill="none" xmlns="http://www.w3.org/2000/svg">
<g clip-path="url(#clip0_2788_55)">
<g style="mix-blend-mode:screen" opacity="0.2">
<path d="M-65 962.813C-33.2887 932.029 13.9583 888.282 57.159 876.362C140.885 853.248 196.316 908.357 212.617 921.518C263.987 962.972 317.152 972.829 359.015 945.637C414.427 909.651 422.741 823.546 523.264 776.726C628.545 727.685 705.896 784.492 731.564 803.269C796.56 850.8 827.959 748.577 893.494 751.044C985.779 754.521 1000.32 883.719 1086.64 858.21C1156.63 837.524 1199.06 844.136 1244.98 882.209C1295.48 924.081 1360.58 968.338 1378.11 919.316C1394.97 872.145 1437.01 838.712 1481.56 833.495C1485.7 847.141 1482.14 864.86 1483.36 879.593C1484.91 898.317 1507.97 946.955 1510 965.54C1489.41 945.334 1431.37 965.496 1416.77 984.067C1362.33 1053.3 1333.91 984.889 1283.12 971.411C1199.98 949.349 1165.81 1046.31 1080.34 956.514C1040.27 914.421 1022.74 868.423 912.089 844.424C856.639 832.393 841.233 879.646 751.137 850.218C743.968 847.877 640.352 824.282 551.958 876.54C478.735 919.826 487.112 1011.59 416.246 1048.91C374.388 1070.96 339.708 1064.58 309.411 1047.26C265.907 1022.38 221.624 984.567 175.56 970.165C115.284 951.321 70.8231 963.409 19.3903 998.333C-6.89387 1016.18 -29.9015 1044.1 -58.038 1057.12C-61.9304 1031.08 -59.111 982.523 -64.9952 962.823L-65 962.813Z" fill="#27007A"/>
</g>
<path opacity="0.1" d="M1440.3 831.911C1359.08 768.534 1268.48 793.42 1275.54 886.843C1279.34 937.051 1290.92 985.801 1286.01 1015.07C1265.89 1135.06 1093.7 1051.09 1009.64 965.961C961.307 917.016 894.45 853.552 856.688 750.434C831.449 681.494 824.771 589.899 867.054 566.928C929.961 532.757 998.545 581.662 1053.32 588.77C1203.99 608.362 1250.62 519.508 1193.36 435.317C1149.88 371.402 1268.73 390.309 1364.28 412.668C1466 436.466 1532.33 399.217 1534.17 342.19C1537.92 225.097 1324.45 234.947 1317.45 175.379C1312.77 135.464 1393.91 127.489 1454 164.381C1581.8 242.841 1660.12 410.774 1862.69 329.122C1882.7 321.053 1867.45 95.7972 1854.13 115.174C1740.52 280.566 1489.87 21.0859 1310.86 81.2446C1283.29 90.5096 1241.06 108.233 1233.34 145.495C1223.51 192.996 1294.5 225.272 1338.9 269.125C1376.08 305.822 1355.21 338.649 1271.49 347.336C1230.76 351.562 1199.92 350.145 1156.69 342.553C1120.77 336.277 1074.07 314.267 1042.82 342.109C1010.76 370.71 1044.44 408.731 1055.37 428.806C1076.47 467.593 1092.68 508.893 1067.46 528.712C1015.46 569.602 964.182 497.061 872.543 479.357C812.108 467.68 751.445 488.266 697.217 467.512C645.173 447.598 597.731 405.184 537.202 405.184C482.538 405.184 433.396 431.91 401.533 482.482C374.601 525.226 360.607 581.487 367.258 630.513C375.843 693.789 385.43 733.087 317.048 762.77C272.346 782.173 210.629 723.815 177.932 773.432C161.735 798.022 162.4 828.908 141.138 849.366C125.391 864.517 103.632 880.809 83.874 889.745C41.0202 909.128 -3.09669 893.897 -47.536 895.308L-76 1019.16C-62.5842 1029.96 -42.8737 965.471 -28.1413 962.414C17.5812 952.934 87.5421 1095.36 238.777 1019.7C271.876 1003.15 283.969 975.529 293.911 940.719C353.714 731.447 546.419 894.253 609.904 772.317C661.007 674.157 499.481 628.048 529.114 534.087C559.264 438.501 733.42 462.494 771.014 565.974C797.234 638.152 793.452 719.414 791.376 795.227C780.627 1188.3 990.57 1248.31 1070.1 1279.29C1243.95 1347.01 1560.78 1429.98 1560.78 1429.98C1570.89 1427.05 1613.5 1351 1613.5 1351C1476.59 1227.61 1258.68 1100.8 1400.69 985.714C1485.51 916.969 1546.17 962.071 1602.36 984.323C1745.95 1041.19 1822.79 858.073 1906 962.394C1894.04 950.334 1901.49 826.946 1901.49 826.946C1816.56 824.03 1819.71 904.748 1746.31 902.544C1734.4 902.188 1721.01 897.438 1710.64 891.888C1685.09 878.216 1654.34 870.785 1625.26 872.129C1618.2 872.458 1527.15 899.689 1440.29 831.904L1440.3 831.911ZM1156.15 1232.41C1131.33 1228.48 952.641 1187.43 910.459 1056.09C902.592 1031.58 918.124 1013.24 950.74 1015.34C971.646 1016.68 1111.33 1061.45 1181.12 1136.12C1204.47 1161.11 1226.48 1243.56 1156.15 1232.4V1232.41Z" fill="#00158A"/>
<path opacity="0.2" d="M1859.73 655.469C2202.29 764.968 2180.59 689.426 2158.38 678.781C2141.76 670.818 2225.55 587.359 2146.42 655.798C1989.29 791.701 1968.04 491.381 1779.53 510.379C1620.09 526.441 1665.42 693.566 1568.57 717.16C1518.7 729.31 1390.98 732.597 1342.52 648.742C1312.78 597.299 1299.11 535.002 1198.76 498.908C1123.61 471.879 1036.47 545.264 972.172 498.182C780.388 357.743 641.896 496.422 652.727 385.672C664.472 265.589 760.417 240.14 751.829 155.882C738.647 26.625 517.223 26 322.491 186.721C275.344 225.631 123.462 278.203 -2.76191 172.225C-82.0204 105.675 -170.673 35.8653 -189.18 26C-201.583 66.2608 -221.419 105.514 -252 133.322C-228.833 155.552 -96.9078 212.506 -34.108 263.963C197.946 454.098 259.255 318.645 301.533 269.272C450.669 95.1107 565.417 223.91 551.054 412.533C542.774 521.239 615.814 562.817 718.455 553.664C777.722 548.382 839.421 508.74 895.646 518.04C960.393 528.752 1057.18 549.363 1082.28 610.504C1140.71 752.878 1245.18 767.32 1315.98 757.428C1340.35 754.021 1363.68 746.299 1388.19 744.935C1528.69 737.16 1578.14 887.235 1665.86 892.712C1839.71 903.572 1695.62 602.997 1859.74 655.455L1859.73 655.469Z" fill="#27007A"/>
</g>
<defs>
<clipPath id="clip0_2788_55">
<rect width="1440" height="780" fill="white"/>
</clipPath>
</defs>
</svg>
