<svg  viewBox="0 0 1440 780" fill="none" xmlns="http://www.w3.org/2000/svg">
<mask id="mask0_2841_17" style="mask-type:luminance" maskUnits="userSpaceOnUse" x="0" y="0" width="1440" height="780">
<path d="M1440 0H0V780H1440V0Z" fill="white"/>
</mask>
<g mask="url(#mask0_2841_17)">
<mask id="mask1_2841_17" style="mask-type:luminance" maskUnits="userSpaceOnUse" x="0" y="0" width="1440" height="780">
<path d="M1440 0H0V780H1440V0Z" fill="white"/>
</mask>
<g mask="url(#mask1_2841_17)">
<path d="M1440.31 0H94.1631C94.1631 0 51.5 43.5 89.5 92.5C125.582 144.5 234.5 136.955 332 116.5C427.5 96.465 481.5 57.5 549.5 53.5C615 46.4969 713.5 75.5 820.5 62.5C927.5 49.5 975 22.5 1036.5 25.5C1086.5 27.939 1092.5 38.5 1100.5 43C1125.5 70 1097 79.5 1113 116C1137.77 172.5 1345 55.5 1357 51.5C1357 51.5 1362 50.5 1373.5 48C1373 54 1372.5 63 1372.5 63C1353.15 90.3671 1330.25 127.976 1336.55 142.629C1337.27 144.305 1338.91 145.358 1340.69 145.763C1362.93 150.823 1380.88 124.269 1403 131C1441 141.5 1434.63 208.5 1434.31 215.5C1425.5 337.5 1376.5 428.5 1398.5 453.5C1418.5 457.5 1415 426.813 1429.5 428.5C1437.31 429.409 1438 441 1437.31 446.5C1436.63 452 1415 582 1422.81 600C1430.63 618 1440.31 619 1440.31 619V0Z" fill="url(#paint0_linear_2841_17)"/>
</g>
</g>
<defs>
<linearGradient id="paint0_linear_2841_17" x1="626" y1="392.5" x2="1239" y2="-265.5" gradientUnits="userSpaceOnUse">
<stop stop-color="white"/>
<stop offset="0.728794" stop-color="#FAEDB6"/>
<stop offset="1" stop-color="#F4DB6C"/>
</linearGradient>
</defs>
</svg>
