<svg width="24" height="25" viewBox="0 0 24 25" fill="none" xmlns="http://www.w3.org/2000/svg">
<path fill-rule="evenodd" clip-rule="evenodd" d="M12 22.8203C17.5228 22.8203 22 18.3432 22 12.8203C22 7.29746 17.5228 2.82031 12 2.82031C6.47715 2.82031 2 7.29746 2 12.8203C2 18.3432 6.47715 22.8203 12 22.8203ZM9.49455 17.3842C9.1849 17.6558 8.71354 17.6269 8.43945 17.3186C8.16426 17.009 8.19215 16.5349 8.50174 16.2597L8.77679 16.0484C8.93912 15.9354 9.17203 15.7898 9.46968 15.6454C10.065 15.3568 10.9268 15.0703 12 15.0703C13.0733 15.0703 13.935 15.3568 14.5303 15.6454C14.828 15.7898 15.0609 15.9354 15.2232 16.0484C15.3045 16.1049 15.3685 16.1535 15.4145 16.1901L15.4983 16.2597C15.8079 16.5349 15.8358 17.009 15.5606 17.3186C15.2865 17.6269 14.8151 17.6558 14.5055 17.3841L14.3666 17.2797C14.2594 17.2052 14.0939 17.1009 13.8759 16.9952C13.44 16.7838 12.8018 16.5703 12 16.5703C11.1983 16.5703 10.56 16.7838 10.1241 16.9952C9.90611 17.1009 9.74058 17.2052 9.63338 17.2797L9.49455 17.3842ZM17 10.8203C17 11.3726 16.5523 11.8203 16 11.8203C15.4477 11.8203 15 11.3726 15 10.8203C15 10.268 15.4477 9.82031 16 9.82031C16.5523 9.82031 17 10.268 17 10.8203ZM8 11.8203C8.55228 11.8203 9 11.3726 9 10.8203C9 10.268 8.55228 9.82031 8 9.82031C7.44772 9.82031 7 10.268 7 10.8203C7 11.3726 7.44772 11.8203 8 11.8203Z" fill="#D30E14"/>
</svg>
