<svg width="25" height="24" viewBox="0 0 25 24" fill="none" xmlns="http://www.w3.org/2000/svg">
<path fill-rule="evenodd" clip-rule="evenodd" d="M22.3271 12C22.3271 17.5228 17.85 22 12.3271 22C6.8043 22 2.32715 17.5228 2.32715 12C2.32715 6.47715 6.8043 2 12.3271 2C17.85 2 22.3271 6.47715 22.3271 12ZM12.3271 5.75C8.87537 5.75 6.07715 8.54822 6.07715 12C6.07715 15.4518 8.87537 18.25 12.3271 18.25C15.7789 18.25 18.5771 15.4518 18.5771 12C18.5771 8.54822 15.7789 5.75 12.3271 5.75ZM4.57715 12C4.57715 7.71979 8.04694 4.25 12.3271 4.25C16.6074 4.25 20.0771 7.71979 20.0771 12C20.0771 16.2802 16.6074 19.75 12.3271 19.75C8.04694 19.75 4.57715 16.2802 4.57715 12ZM13.0771 9C13.0771 8.58579 12.7414 8.25 12.3271 8.25C11.9129 8.25 11.5771 8.58579 11.5771 9V11.382C11.5771 12.0448 11.9517 12.6508 12.5445 12.9472L13.9917 13.6708C14.3622 13.8561 14.8127 13.7059 14.998 13.3354C15.1832 12.9649 15.033 12.5144 14.6626 12.3292L13.2153 11.6056C13.1306 11.5632 13.0771 11.4767 13.0771 11.382V9Z" fill="#D30E14"/>
</svg>
