<svg preserveAspectRatio="none" viewBox="0 0 1440 700" fill="none" xmlns="http://www.w3.org/2000/svg">
<path d="M1549.96 87.604C1548.44 34.9252 1501.2 -4.4552 1449.33 2.28819C1345.27 15.8126 972.726 44.2642 720.623 44.2642C468.52 44.2642 65.7207 12.0077 -19.535 0.643156C-35.5119 -1.49162 -51.8377 1.68543 -65.5589 10.212C-92.2285 26.8005 -110 56.499 -110 90.4043V609.608C-110 610.537 -109.988 611.479 -109.963 612.396C-108.442 665.075 -61.197 704.455 -9.32824 697.712C94.7333 684.187 467.274 654.032 719.377 654.032C971.48 654.032 1374.28 687.98 1459.53 699.357C1475.51 701.492 1491.84 698.315 1505.56 689.788C1532.23 673.199 1550 643.501 1550 609.608V90.4043C1550 89.4751 1549.99 88.5333 1549.96 87.6166V87.604Z" fill="url(#paint0_radial_339_1822)"/>
<defs>
<radialGradient id="paint0_radial_339_1822" cx="0" cy="0" r="1" gradientUnits="userSpaceOnUse" gradientTransform="translate(713.712 368.338) rotate(-0.738248) scale(1162.1 1701.74)">
<stop stop-color="white"/>
<stop offset="1" stop-color="#F4DB6C"/>
</radialGradient>
</defs>
</svg>
