<svg preserveAspectRatio="none" viewBox="0 0 375 644" fill="none" xmlns="http://www.w3.org/2000/svg">
<path d="M407.99 66.2305C407.581 26.451 394.858 -3.28642 380.891 1.80574C352.87 12.0185 252.553 23.8924 184.668 23.8924C116.782 23.8924 8.31757 9.14527 -14.6398 0.563519C-18.942 -1.04852 -23.3382 1.35058 -27.033 7.78926C-34.2145 20.3158 -39 42.7421 -39 68.3451V575.742C-39 576.444 -38.9966 577.155 -38.9899 577.847C-38.5805 617.627 -25.8585 647.364 -11.8914 642.272C16.13 632.059 116.447 618.899 184.332 618.899C252.218 618.899 360.682 634.923 383.64 643.514C387.942 645.126 392.338 642.727 396.033 636.289C403.215 623.762 408 601.336 408 575.742V68.3451C408 67.6434 407.997 66.9322 407.99 66.24V66.2305Z" fill="url(#paint0_radial_623_2791)"/>
<defs>
<radialGradient id="paint0_radial_623_2791" cx="0" cy="0" r="1" gradientUnits="userSpaceOnUse" gradientTransform="translate(182.807 278.222) rotate(-2.06948) scale(313.104 1284.31)">
<stop stop-color="white"/>
<stop offset="1" stop-color="#F4DB6C"/>
</radialGradient>
</defs>
</svg>
