<svg width="192" height="52" viewBox="0 0 192 52" fill="none" xmlns="http://www.w3.org/2000/svg">
<g clip-path="url(#clip0_991_250)">
<path d="M20.2707 -0.0395508H192V31.7969C192 42.9492 182.919 52.0001 171.729 52.0001H0V20.1637C0 9.0114 9.08117 -0.0395508 20.2707 -0.0395508Z" fill="#ED1C24"/>
<path d="M22.8351 13.4906C21.1101 15.2099 20.1583 17.4957 20.1583 19.9132V31.8231L20.9779 31.6979C22.9937 31.3949 24.5535 29.7283 24.765 27.6665L24.7914 19.9132C24.7914 18.7275 25.2607 17.6077 26.1133 16.7579C26.9659 15.9081 28.0895 15.4405 29.2792 15.4405H50.343V10.8228H29.2792C26.8469 10.8228 24.5601 11.7713 22.8351 13.4906Z" fill="white"/>
<path d="M45.7165 24.3924V31.757C45.7165 32.9427 45.2406 34.0626 44.388 34.9123C43.5354 35.7621 42.4118 36.2298 41.2221 36.2298H20.1583V40.8475H41.2221C43.6544 40.8475 45.9412 39.8989 47.6662 38.1796C49.3912 36.4603 50.343 34.1811 50.343 31.757V19.8472L49.5234 19.9723C47.349 20.3017 45.7099 22.2054 45.7099 24.3924" fill="white"/>
<path d="M41.6319 31.8362V20.0845H38.1885L35.254 23.859L32.3128 20.0845H28.8694V31.8362H32.5045V25.8681L35.254 29.1354L37.9968 25.8681V31.8362H41.6319Z" fill="white"/>
<path d="M103.33 35.1499H108.254V20.8489H115.134V16.521H103.33V35.1499Z" fill="white"/>
<path d="M129.978 23.4706H122.669V16.521H117.751V35.1499H122.669V27.8512H129.978V35.1499H134.902V16.521H129.978V23.4706Z" fill="white"/>
<path d="M157.711 20.8423H163.461V35.1499H168.378V20.8423H174.155V16.521H157.711V20.8423Z" fill="white"/>
<path d="M143.442 27.0277V16.521H138.518V35.1499H142.635L150.467 24.5312V35.1499H155.391V16.521H151.141L143.442 27.0277Z" fill="white"/>
<path d="M70.1379 22.9239L65.1611 16.521H60.3032V35.1499H65.2271V24.0766L70.1379 29.9262L75.0552 24.0766V35.1499H79.9725V16.521H75.1213L70.1379 22.9239Z" fill="white"/>
<path d="M89.3643 16.521L81.7966 35.1499H86.7536L87.778 32.5413H95.4382L96.4627 35.1499H101.499L93.9313 16.521H89.3841H89.3643ZM89.3114 28.6021L91.5982 22.7592L93.885 28.6021H89.3114Z" fill="white"/>
</g>
<defs>
<clipPath id="clip0_991_250">
<rect width="192" height="52" fill="white"/>
</clipPath>
</defs>
</svg>
